G04 Layer_Physical_Order=1*
G04 Layer_Color=255*
%FSLAX25Y25*%
%MOIN*%
G70*
G01*
G75*
%ADD10C,0.01181*%
%ADD11C,0.19685*%
%ADD12C,0.05905*%
%ADD13C,0.06693*%
%ADD14C,0.07874*%
%ADD15C,0.03150*%
G36*
X285630Y234446D02*
X286961Y233538D01*
X288092Y232389D01*
X288976Y231049D01*
Y204288D01*
X288535Y204052D01*
X288323Y204194D01*
X287402Y204377D01*
X286999Y204297D01*
X286645Y204650D01*
X286660Y204724D01*
X286476Y205646D01*
X285954Y206427D01*
X285173Y206949D01*
X284251Y207133D01*
X283330Y206949D01*
X282548Y206427D01*
X282026Y205646D01*
X281843Y204724D01*
X281857Y204651D01*
X281504Y204297D01*
X281102Y204377D01*
X280181Y204194D01*
X279399Y203672D01*
X279200Y203374D01*
X226312D01*
X226113Y203672D01*
X225331Y204194D01*
X224410Y204377D01*
X223488Y204194D01*
X222706Y203672D01*
X222184Y202890D01*
X222001Y201969D01*
X222184Y201047D01*
X222706Y200266D01*
X223488Y199743D01*
X224410Y199560D01*
X225331Y199743D01*
X226071Y200238D01*
X226148Y200260D01*
X226252Y200246D01*
X226508Y199753D01*
X226508Y199706D01*
X226332Y198819D01*
X226508Y197931D01*
X226508Y197885D01*
X226252Y197391D01*
X226148Y197377D01*
X226071Y197400D01*
X225331Y197894D01*
X224410Y198078D01*
X223488Y197894D01*
X222706Y197372D01*
X222184Y196591D01*
X222001Y195669D01*
X222184Y194748D01*
X222674Y194015D01*
X222729Y193843D01*
Y193558D01*
X222674Y193387D01*
X222184Y192654D01*
X222001Y191732D01*
X222184Y190811D01*
X222706Y190029D01*
X223488Y189507D01*
X224410Y189324D01*
X224545Y189351D01*
X224900Y188912D01*
X224756Y188189D01*
X224940Y187267D01*
X225419Y186551D01*
X225282Y186051D01*
X218418D01*
X218151Y186551D01*
X218367Y186874D01*
X218550Y187795D01*
X218367Y188717D01*
X217845Y189498D01*
X217547Y189698D01*
Y198622D01*
X218238Y199084D01*
X218761Y199866D01*
X218944Y200787D01*
X218761Y201709D01*
X218238Y202490D01*
X217457Y203013D01*
X216535Y203196D01*
X215614Y203013D01*
X214832Y202490D01*
X214310Y201709D01*
X214127Y200787D01*
X214310Y199866D01*
X214737Y199227D01*
Y189698D01*
X214439Y189498D01*
X213917Y188717D01*
X213733Y187795D01*
X213917Y186874D01*
X214132Y186551D01*
X213865Y186051D01*
X212083D01*
X201077Y197056D01*
X200622Y197361D01*
X200084Y197468D01*
X181806D01*
X181268Y197361D01*
X180812Y197056D01*
X174203Y190447D01*
X173899Y189992D01*
X173792Y189454D01*
Y152548D01*
X173622Y152409D01*
X172700Y152225D01*
X171919Y151703D01*
X171397Y150922D01*
X171214Y150000D01*
X171397Y149078D01*
X171919Y148297D01*
X172563Y147866D01*
X172587Y147787D01*
Y147390D01*
X172563Y147311D01*
X171919Y146880D01*
X171397Y146099D01*
X171214Y145177D01*
X171397Y144255D01*
X171919Y143474D01*
X172563Y143043D01*
X172587Y142964D01*
Y142567D01*
X172563Y142488D01*
X171919Y142057D01*
X171397Y141276D01*
X171214Y140354D01*
X171397Y139433D01*
X171919Y138651D01*
X172563Y138221D01*
X172587Y138141D01*
Y137744D01*
X172563Y137665D01*
X171919Y137234D01*
X171397Y136453D01*
X171214Y135531D01*
X171397Y134610D01*
X171919Y133828D01*
X172563Y133398D01*
X172587Y133318D01*
Y132922D01*
X172563Y132842D01*
X171919Y132412D01*
X171397Y131630D01*
X171214Y130709D01*
X171397Y129787D01*
X171919Y129006D01*
X172700Y128483D01*
X173622Y128300D01*
X174544Y128483D01*
X175325Y129006D01*
X175524Y129304D01*
X179921D01*
X180459Y129411D01*
X180915Y129715D01*
X184064Y132865D01*
X184369Y133321D01*
X184476Y133858D01*
Y185610D01*
X185649Y186784D01*
X196240D01*
X207246Y175778D01*
X207702Y175474D01*
X208240Y175367D01*
X221392D01*
X221644Y174867D01*
X221472Y174633D01*
X217717D01*
X217179Y174526D01*
X216723Y174222D01*
X214755Y172253D01*
X214450Y171798D01*
X214343Y171260D01*
Y123023D01*
X208473Y117153D01*
X188516D01*
X188317Y117451D01*
X187536Y117973D01*
X186614Y118157D01*
X185693Y117973D01*
X184911Y117451D01*
X184389Y116670D01*
X184206Y115748D01*
X184389Y114826D01*
X184911Y114045D01*
X185693Y113523D01*
X186614Y113340D01*
X187536Y113523D01*
X188317Y114045D01*
X188516Y114343D01*
X209055D01*
X209593Y114450D01*
X210049Y114755D01*
X216741Y121448D01*
X217046Y121903D01*
X217153Y122441D01*
Y170678D01*
X218110Y171635D01*
X218299Y171823D01*
X221719D01*
X221919Y171525D01*
X222700Y171003D01*
X223622Y170820D01*
X224543Y171003D01*
X225325Y171525D01*
X225847Y172307D01*
X226030Y173228D01*
X225847Y174150D01*
X225481Y174697D01*
X225368Y174867D01*
X225505Y175367D01*
X272075D01*
X272613Y175474D01*
X273069Y175778D01*
X283277Y185986D01*
X283581Y186442D01*
X283688Y186980D01*
Y191732D01*
X283581Y192270D01*
X283277Y192726D01*
X282238Y193764D01*
X282440Y194264D01*
X284252D01*
X284790Y194371D01*
X285245Y194676D01*
X288395Y197826D01*
X288476Y197947D01*
X288976Y197795D01*
X288976Y19685D01*
X282458D01*
X282458Y19685D01*
X282327Y21353D01*
X281936Y22980D01*
X281296Y24526D01*
X280422Y25953D01*
X279335Y27225D01*
X278063Y28311D01*
X276636Y29186D01*
X275090Y29826D01*
X273463Y30217D01*
X271795Y30348D01*
X270127Y30217D01*
X268500Y29826D01*
X266954Y29186D01*
X265528Y28311D01*
X264255Y27225D01*
X263169Y25953D01*
X262295Y24526D01*
X261654Y22980D01*
X261264Y21353D01*
X261133Y19685D01*
X261133Y19685D01*
X30848Y19685D01*
X30348Y19685D01*
X30217Y21353D01*
X29826Y22980D01*
X29186Y24526D01*
X28311Y25953D01*
X27225Y27225D01*
X25953Y28311D01*
X24526Y29186D01*
X22980Y29826D01*
X21353Y30217D01*
X19685Y30348D01*
X19685Y30848D01*
X19685Y206660D01*
X19685Y206660D01*
X21353Y206791D01*
X22980Y207182D01*
X24526Y207822D01*
X25953Y208697D01*
X27225Y209783D01*
X28311Y211055D01*
X29186Y212482D01*
X29826Y214028D01*
X30217Y215655D01*
X30348Y217323D01*
X30217Y218991D01*
X29826Y220618D01*
X29186Y222164D01*
X28311Y223590D01*
X27225Y224863D01*
X25953Y225949D01*
X24526Y226823D01*
X22980Y227464D01*
X21353Y227854D01*
X19685Y227986D01*
X19685Y227986D01*
Y235039D01*
X284242Y235039D01*
X285630Y234446D01*
D02*
G37*
G36*
X275242Y193764D02*
X273809Y192332D01*
X273505Y191876D01*
X273473Y191716D01*
X273099Y191466D01*
X272887Y191149D01*
X272387D01*
X272175Y191466D01*
X271394Y191989D01*
X270472Y192172D01*
X269550Y191989D01*
X268769Y191466D01*
X268247Y190685D01*
X268168Y190289D01*
X267658D01*
X267580Y190685D01*
X267057Y191467D01*
X266276Y191989D01*
X265354Y192172D01*
X264433Y191989D01*
X263651Y191467D01*
X263129Y190685D01*
X262946Y189764D01*
X263016Y189412D01*
X259654Y186051D01*
X256214D01*
X256077Y186551D01*
X256556Y187267D01*
X256739Y188189D01*
X256556Y189111D01*
X256034Y189892D01*
X255252Y190414D01*
X254331Y190597D01*
X253409Y190414D01*
X252628Y189892D01*
X252429Y189594D01*
X237710D01*
X237573Y190094D01*
X238052Y190811D01*
X238235Y191732D01*
X238052Y192654D01*
X237530Y193435D01*
X237037Y193764D01*
X237189Y194264D01*
X275041D01*
X275242Y193764D01*
D02*
G37*
G36*
X273099Y188060D02*
X273881Y187538D01*
X274803Y187355D01*
X275724Y187538D01*
X276458Y188028D01*
X276628Y188084D01*
X276914D01*
X277086Y188028D01*
X277335Y187862D01*
Y186802D01*
X270678Y180145D01*
X268418D01*
X268151Y180645D01*
X268366Y180968D01*
X268550Y181889D01*
X268366Y182811D01*
X267844Y183592D01*
X267063Y184115D01*
X266845Y184158D01*
X266699Y184636D01*
X269593Y187530D01*
X270472Y187355D01*
X271394Y187538D01*
X272175Y188060D01*
X272387Y188378D01*
X272887D01*
X273099Y188060D01*
D02*
G37*
%LPC*%
G36*
X158071Y232442D02*
Y227953D01*
Y223464D01*
X158662Y223542D01*
X159764Y223998D01*
X160709Y224724D01*
X161350Y225559D01*
X161756Y225627D01*
X161948Y225601D01*
X162406Y225005D01*
X163270Y224342D01*
X164275Y223925D01*
X165354Y223783D01*
X166434Y223925D01*
X167439Y224342D01*
X168303Y225005D01*
X168965Y225868D01*
X169382Y226874D01*
X169524Y227953D01*
X169382Y229032D01*
X168965Y230037D01*
X168303Y230901D01*
X167439Y231564D01*
X166434Y231980D01*
X165354Y232122D01*
X164275Y231980D01*
X163270Y231564D01*
X162406Y230901D01*
X161948Y230304D01*
X161756Y230279D01*
X161350Y230347D01*
X160709Y231182D01*
X159764Y231908D01*
X158662Y232364D01*
X158071Y232442D01*
D02*
G37*
G36*
X245434Y227362D02*
X241535D01*
Y223464D01*
X242127Y223542D01*
X243228Y223998D01*
X244174Y224724D01*
X244900Y225669D01*
X245356Y226771D01*
X245434Y227362D01*
D02*
G37*
G36*
X271795Y227986D02*
X270127Y227854D01*
X268500Y227464D01*
X266954Y226823D01*
X265528Y225949D01*
X264255Y224863D01*
X263169Y223590D01*
X262295Y222164D01*
X261654Y220618D01*
X261264Y218991D01*
X261133Y217323D01*
X261264Y215655D01*
X261654Y214028D01*
X262295Y212482D01*
X263169Y211055D01*
X264255Y209783D01*
X265528Y208697D01*
X266954Y207822D01*
X268500Y207182D01*
X270127Y206791D01*
X271795Y206660D01*
X273463Y206791D01*
X275090Y207182D01*
X276636Y207822D01*
X278063Y208697D01*
X279335Y209783D01*
X280422Y211055D01*
X281296Y212482D01*
X281936Y214028D01*
X282327Y215655D01*
X282458Y217323D01*
X282327Y218991D01*
X281936Y220618D01*
X281296Y222164D01*
X280422Y223590D01*
X279335Y224863D01*
X278063Y225949D01*
X276636Y226823D01*
X275090Y227464D01*
X273463Y227854D01*
X271795Y227986D01*
D02*
G37*
G36*
X281102Y83300D02*
X280126Y83171D01*
X279216Y82795D01*
X278435Y82195D01*
X277835Y81414D01*
X277459Y80504D01*
X277330Y79528D01*
X277459Y78551D01*
X277835Y77641D01*
X278435Y76860D01*
X279216Y76261D01*
X280126Y75884D01*
X280437Y75843D01*
Y75338D01*
X280126Y75297D01*
X279216Y74921D01*
X278435Y74321D01*
X277835Y73540D01*
X277459Y72630D01*
X277330Y71654D01*
X277459Y70677D01*
X277835Y69767D01*
X278435Y68986D01*
X279216Y68387D01*
X280126Y68010D01*
X281102Y67881D01*
X282079Y68010D01*
X282989Y68387D01*
X283770Y68986D01*
X284369Y69767D01*
X284746Y70677D01*
X284875Y71654D01*
X284746Y72630D01*
X284369Y73540D01*
X283770Y74321D01*
X282989Y74921D01*
X282079Y75297D01*
X281768Y75338D01*
Y75843D01*
X282079Y75884D01*
X282989Y76261D01*
X283770Y76860D01*
X284369Y77641D01*
X284746Y78551D01*
X284875Y79528D01*
X284746Y80504D01*
X284369Y81414D01*
X283770Y82195D01*
X282989Y82795D01*
X282079Y83171D01*
X281102Y83300D01*
D02*
G37*
G36*
Y57709D02*
X280126Y57581D01*
X279216Y57204D01*
X278435Y56604D01*
X277835Y55823D01*
X277459Y54913D01*
X277330Y53937D01*
X277459Y52961D01*
X277835Y52051D01*
X278435Y51270D01*
X279216Y50670D01*
X280126Y50293D01*
X280437Y50252D01*
Y49748D01*
X280126Y49707D01*
X279216Y49330D01*
X278435Y48730D01*
X277835Y47949D01*
X277459Y47039D01*
X277330Y46063D01*
X277459Y45087D01*
X277835Y44177D01*
X278435Y43396D01*
X279216Y42796D01*
X280126Y42419D01*
X281102Y42291D01*
X282079Y42419D01*
X282989Y42796D01*
X283770Y43396D01*
X284369Y44177D01*
X284746Y45087D01*
X284875Y46063D01*
X284746Y47039D01*
X284369Y47949D01*
X283770Y48730D01*
X282989Y49330D01*
X282079Y49707D01*
X281768Y49748D01*
Y50252D01*
X282079Y50293D01*
X282989Y50670D01*
X283770Y51270D01*
X284369Y52051D01*
X284746Y52961D01*
X284875Y53937D01*
X284746Y54913D01*
X284369Y55823D01*
X283770Y56604D01*
X282989Y57204D01*
X282079Y57581D01*
X281102Y57709D01*
D02*
G37*
G36*
X185039Y84987D02*
X184118Y84804D01*
X183336Y84282D01*
X182814Y83500D01*
X182631Y82579D01*
X182814Y81657D01*
X183336Y80876D01*
X183634Y80677D01*
Y31824D01*
X183336Y31624D01*
X182814Y30843D01*
X182631Y29921D01*
X182814Y29000D01*
X183336Y28218D01*
X184118Y27696D01*
X185039Y27513D01*
X185961Y27696D01*
X186742Y28218D01*
X187265Y29000D01*
X187448Y29921D01*
X187265Y30843D01*
X186742Y31624D01*
X186444Y31824D01*
Y80677D01*
X186742Y80876D01*
X187265Y81657D01*
X187448Y82579D01*
X187265Y83500D01*
X186742Y84282D01*
X185961Y84804D01*
X185039Y84987D01*
D02*
G37*
G36*
X186614Y122271D02*
X186076Y122164D01*
X185621Y121860D01*
X185316Y121404D01*
X185209Y120866D01*
Y120079D01*
X185316Y119541D01*
X185621Y119085D01*
X185621Y119085D01*
X186077Y118781D01*
X186614Y118674D01*
X187152Y118781D01*
X187608Y119085D01*
X187912Y119541D01*
X188019Y120079D01*
X188019Y120080D01*
Y120866D01*
X187912Y121404D01*
X187608Y121860D01*
X187152Y122164D01*
X186614Y122271D01*
D02*
G37*
G36*
X282677Y131970D02*
X281444Y131807D01*
X280295Y131332D01*
X279308Y130574D01*
X278550Y129587D01*
X278074Y128438D01*
X277912Y127205D01*
X278074Y125971D01*
X278550Y124822D01*
X279308Y123835D01*
X280295Y123078D01*
X281260Y122678D01*
X281292Y122486D01*
X281235Y122147D01*
X280096Y121675D01*
X279027Y120855D01*
X278206Y119786D01*
X277691Y118541D01*
X277593Y117795D01*
X282677D01*
X287762D01*
X287664Y118541D01*
X287148Y119786D01*
X286327Y120855D01*
X285258Y121675D01*
X284119Y122147D01*
X284062Y122486D01*
X284094Y122678D01*
X285060Y123078D01*
X286047Y123835D01*
X286804Y124822D01*
X287280Y125971D01*
X287442Y127205D01*
X287280Y128438D01*
X286804Y129587D01*
X286047Y130574D01*
X285060Y131332D01*
X283910Y131807D01*
X282677Y131970D01*
D02*
G37*
G36*
X287762Y116614D02*
X282677D01*
X277593D01*
X277691Y115869D01*
X278206Y114624D01*
X279027Y113554D01*
X280096Y112734D01*
X281235Y112262D01*
X281292Y111924D01*
X281260Y111732D01*
X280295Y111331D01*
X279308Y110574D01*
X278550Y109587D01*
X278178Y108688D01*
X263123D01*
X262924Y108986D01*
X262142Y109509D01*
X261221Y109692D01*
X260299Y109509D01*
X259517Y108986D01*
X258995Y108205D01*
X258812Y107283D01*
X258995Y106362D01*
X259517Y105580D01*
X260299Y105058D01*
X261221Y104875D01*
X262142Y105058D01*
X262924Y105580D01*
X263123Y105878D01*
X278113D01*
X278550Y104822D01*
X279308Y103835D01*
X280295Y103078D01*
X281444Y102602D01*
X282321Y102486D01*
X282545Y102457D01*
Y101953D01*
X282321Y101923D01*
X281444Y101807D01*
X280295Y101331D01*
X279308Y100574D01*
X278550Y99587D01*
X278074Y98438D01*
X277912Y97205D01*
X278074Y95971D01*
X278550Y94822D01*
X279308Y93835D01*
X280295Y93078D01*
X281444Y92602D01*
X282677Y92440D01*
X283910Y92602D01*
X285060Y93078D01*
X286047Y93835D01*
X286804Y94822D01*
X287280Y95971D01*
X287442Y97205D01*
X287280Y98438D01*
X286804Y99587D01*
X286047Y100574D01*
X285060Y101331D01*
X283910Y101807D01*
X283033Y101923D01*
X282809Y101953D01*
Y102457D01*
X283033Y102486D01*
X283910Y102602D01*
X285060Y103078D01*
X286047Y103835D01*
X286804Y104822D01*
X287280Y105971D01*
X287442Y107205D01*
X287280Y108438D01*
X286804Y109587D01*
X286047Y110574D01*
X285060Y111331D01*
X284094Y111732D01*
X284062Y111924D01*
X284119Y112262D01*
X285258Y112734D01*
X286327Y113554D01*
X287148Y114624D01*
X287664Y115869D01*
X287762Y116614D01*
D02*
G37*
G36*
X82480Y232835D02*
Y228937D01*
X86379D01*
X86301Y229528D01*
X85845Y230630D01*
X85119Y231576D01*
X84173Y232301D01*
X83072Y232757D01*
X82480Y232835D01*
D02*
G37*
G36*
X99410Y232438D02*
X98921Y232374D01*
X97915Y231957D01*
X97052Y231295D01*
X96389Y230431D01*
X95973Y229426D01*
X95908Y228937D01*
X99410D01*
Y232438D01*
D02*
G37*
G36*
X241535Y232442D02*
Y228543D01*
X245434D01*
X245356Y229135D01*
X244900Y230236D01*
X244174Y231182D01*
X243228Y231908D01*
X242127Y232364D01*
X241535Y232442D01*
D02*
G37*
G36*
X81299Y232835D02*
X80708Y232757D01*
X79606Y232301D01*
X78661Y231576D01*
X78020Y230740D01*
X77614Y230672D01*
X77422Y230698D01*
X76964Y231295D01*
X76100Y231957D01*
X75095Y232374D01*
X74016Y232516D01*
X72937Y232374D01*
X71931Y231957D01*
X71067Y231295D01*
X70405Y230431D01*
X70329Y230247D01*
X69829D01*
X69753Y230431D01*
X69090Y231295D01*
X68226Y231957D01*
X67221Y232374D01*
X66142Y232516D01*
X65063Y232374D01*
X64057Y231957D01*
X63193Y231295D01*
X62531Y230431D01*
X62455Y230247D01*
X61955D01*
X61879Y230431D01*
X61216Y231295D01*
X60352Y231957D01*
X59347Y232374D01*
X58268Y232516D01*
X57189Y232374D01*
X56183Y231957D01*
X55319Y231295D01*
X54657Y230431D01*
X54581Y230247D01*
X54081D01*
X54005Y230431D01*
X53342Y231295D01*
X52478Y231957D01*
X51473Y232374D01*
X50394Y232516D01*
X49315Y232374D01*
X48309Y231957D01*
X47445Y231295D01*
X46783Y230431D01*
X46366Y229426D01*
X46224Y228346D01*
X46366Y227267D01*
X46783Y226262D01*
X47445Y225398D01*
X48309Y224736D01*
X49315Y224319D01*
X50394Y224177D01*
X51473Y224319D01*
X52478Y224736D01*
X53342Y225398D01*
X54005Y226262D01*
X54081Y226445D01*
X54581D01*
X54657Y226262D01*
X55319Y225398D01*
X56183Y224736D01*
X57189Y224319D01*
X58268Y224177D01*
X59347Y224319D01*
X60352Y224736D01*
X61216Y225398D01*
X61879Y226262D01*
X61955Y226445D01*
X62455D01*
X62531Y226262D01*
X63193Y225398D01*
X64057Y224736D01*
X65063Y224319D01*
X66142Y224177D01*
X67221Y224319D01*
X68226Y224736D01*
X69090Y225398D01*
X69753Y226262D01*
X69829Y226445D01*
X70329D01*
X70405Y226262D01*
X71067Y225398D01*
X71931Y224736D01*
X72937Y224319D01*
X74016Y224177D01*
X75095Y224319D01*
X76100Y224736D01*
X76964Y225398D01*
X77422Y225995D01*
X77614Y226021D01*
X78020Y225953D01*
X78661Y225117D01*
X79606Y224392D01*
X80708Y223935D01*
X81299Y223858D01*
Y228346D01*
Y232835D01*
D02*
G37*
G36*
X156890Y232442D02*
X156298Y232364D01*
X155197Y231908D01*
X154251Y231182D01*
X153610Y230347D01*
X153205Y230279D01*
X153013Y230304D01*
X152555Y230901D01*
X151691Y231564D01*
X150685Y231980D01*
X149606Y232122D01*
X148527Y231980D01*
X147521Y231564D01*
X146658Y230901D01*
X145995Y230037D01*
X145919Y229854D01*
X145419D01*
X145343Y230037D01*
X144681Y230901D01*
X143817Y231564D01*
X142811Y231980D01*
X141732Y232122D01*
X140653Y231980D01*
X139647Y231564D01*
X138784Y230901D01*
X138121Y230037D01*
X138045Y229854D01*
X137545D01*
X137469Y230037D01*
X136807Y230901D01*
X135943Y231564D01*
X134937Y231980D01*
X133858Y232122D01*
X132779Y231980D01*
X131773Y231564D01*
X130910Y230901D01*
X130247Y230037D01*
X130171Y229854D01*
X129671D01*
X129595Y230037D01*
X128932Y230901D01*
X128069Y231564D01*
X127063Y231980D01*
X125984Y232122D01*
X124905Y231980D01*
X123899Y231564D01*
X123036Y230901D01*
X122373Y230037D01*
X121957Y229032D01*
X121815Y227953D01*
X121957Y226874D01*
X122373Y225868D01*
X123036Y225005D01*
X123899Y224342D01*
X124905Y223925D01*
X125984Y223783D01*
X127063Y223925D01*
X128069Y224342D01*
X128932Y225005D01*
X129595Y225868D01*
X129671Y226052D01*
X130171D01*
X130247Y225868D01*
X130910Y225005D01*
X131773Y224342D01*
X132779Y223925D01*
X133858Y223783D01*
X134937Y223925D01*
X135943Y224342D01*
X136807Y225005D01*
X137469Y225868D01*
X137545Y226052D01*
X138045D01*
X138121Y225868D01*
X138784Y225005D01*
X139647Y224342D01*
X140653Y223925D01*
X141732Y223783D01*
X142811Y223925D01*
X143817Y224342D01*
X144681Y225005D01*
X145343Y225868D01*
X145419Y226052D01*
X145919D01*
X145995Y225868D01*
X146658Y225005D01*
X147521Y224342D01*
X148527Y223925D01*
X149606Y223783D01*
X150685Y223925D01*
X151691Y224342D01*
X152555Y225005D01*
X153013Y225601D01*
X153205Y225627D01*
X153610Y225559D01*
X154251Y224724D01*
X155197Y223998D01*
X156298Y223542D01*
X156890Y223464D01*
Y227953D01*
Y232442D01*
D02*
G37*
G36*
X240354Y232442D02*
X239763Y232364D01*
X238662Y231908D01*
X237716Y231182D01*
X237075Y230347D01*
X236669Y230279D01*
X236477Y230304D01*
X236019Y230901D01*
X235156Y231564D01*
X234150Y231980D01*
X233071Y232122D01*
X231992Y231980D01*
X230986Y231564D01*
X230123Y230901D01*
X229460Y230037D01*
X229384Y229854D01*
X228884D01*
X228808Y230037D01*
X228145Y230901D01*
X227282Y231564D01*
X226276Y231980D01*
X225197Y232122D01*
X224118Y231980D01*
X223112Y231564D01*
X222249Y230901D01*
X221586Y230037D01*
X221510Y229854D01*
X221010D01*
X220934Y230037D01*
X220271Y230901D01*
X219408Y231564D01*
X218402Y231980D01*
X217323Y232122D01*
X216244Y231980D01*
X215238Y231564D01*
X214374Y230901D01*
X213712Y230037D01*
X213636Y229854D01*
X213136D01*
X213060Y230037D01*
X212397Y230901D01*
X211534Y231564D01*
X210528Y231980D01*
X209449Y232122D01*
X208370Y231980D01*
X207364Y231564D01*
X206501Y230901D01*
X205838Y230037D01*
X205421Y229032D01*
X205279Y227953D01*
X205421Y226874D01*
X205838Y225868D01*
X206501Y225004D01*
X207364Y224342D01*
X208370Y223925D01*
X209449Y223783D01*
X210528Y223925D01*
X211534Y224342D01*
X212397Y225004D01*
X213060Y225868D01*
X213136Y226052D01*
X213636D01*
X213712Y225868D01*
X214374Y225004D01*
X215238Y224342D01*
X216244Y223925D01*
X217323Y223783D01*
X218402Y223925D01*
X219408Y224342D01*
X220271Y225004D01*
X220934Y225868D01*
X221010Y226052D01*
X221510D01*
X221586Y225868D01*
X222249Y225004D01*
X223112Y224342D01*
X224118Y223925D01*
X225197Y223783D01*
X226276Y223925D01*
X227282Y224342D01*
X228145Y225004D01*
X228808Y225868D01*
X228884Y226052D01*
X229384D01*
X229460Y225868D01*
X230123Y225004D01*
X230986Y224342D01*
X231992Y223925D01*
X233071Y223783D01*
X234150Y223925D01*
X235156Y224342D01*
X236019Y225004D01*
X236477Y225601D01*
X236669Y225627D01*
X237075Y225559D01*
X237716Y224724D01*
X238662Y223998D01*
X239763Y223542D01*
X240354Y223464D01*
Y227953D01*
Y232442D01*
D02*
G37*
G36*
X184055Y232045D02*
Y227953D01*
Y223861D01*
X184544Y223925D01*
X185549Y224342D01*
X186413Y225005D01*
X187075Y225868D01*
X187344Y226516D01*
X187885D01*
X188072Y226067D01*
X188671Y225285D01*
X189452Y224686D01*
X190362Y224309D01*
X191339Y224180D01*
X192315Y224309D01*
X193225Y224686D01*
X194006Y225285D01*
X194606Y226067D01*
X194982Y226976D01*
X195111Y227953D01*
X194982Y228929D01*
X194606Y229839D01*
X194006Y230620D01*
X193225Y231220D01*
X192315Y231597D01*
X191339Y231725D01*
X190362Y231597D01*
X189452Y231220D01*
X188671Y230620D01*
X188072Y229839D01*
X187885Y229389D01*
X187344D01*
X187075Y230037D01*
X186413Y230901D01*
X185549Y231564D01*
X184544Y231980D01*
X184055Y232045D01*
D02*
G37*
G36*
X182874Y227362D02*
X179373D01*
X179437Y226874D01*
X179854Y225868D01*
X180516Y225005D01*
X181380Y224342D01*
X182385Y223925D01*
X182874Y223861D01*
Y227362D01*
D02*
G37*
G36*
X86379Y227756D02*
X82480D01*
Y223858D01*
X83072Y223935D01*
X84173Y224392D01*
X85119Y225117D01*
X85845Y226063D01*
X86301Y227165D01*
X86379Y227756D01*
D02*
G37*
G36*
X182874Y232045D02*
X182385Y231980D01*
X181380Y231564D01*
X180516Y230901D01*
X179854Y230037D01*
X179437Y229032D01*
X179373Y228543D01*
X182874D01*
Y232045D01*
D02*
G37*
G36*
X100591Y232438D02*
Y228346D01*
Y224255D01*
X101079Y224319D01*
X102085Y224736D01*
X102948Y225398D01*
X103611Y226262D01*
X103879Y226910D01*
X104421D01*
X104607Y226460D01*
X105207Y225679D01*
X105988Y225079D01*
X106898Y224703D01*
X107874Y224574D01*
X108850Y224703D01*
X109760Y225079D01*
X110541Y225679D01*
X111141Y226460D01*
X111518Y227370D01*
X111646Y228346D01*
X111518Y229323D01*
X111141Y230233D01*
X110541Y231014D01*
X109760Y231613D01*
X108850Y231990D01*
X107874Y232119D01*
X106898Y231990D01*
X105988Y231613D01*
X105207Y231014D01*
X104607Y230233D01*
X104421Y229783D01*
X103879D01*
X103611Y230431D01*
X102948Y231295D01*
X102085Y231957D01*
X101079Y232374D01*
X100591Y232438D01*
D02*
G37*
G36*
X99410Y227756D02*
X95908D01*
X95973Y227267D01*
X96389Y226262D01*
X97052Y225398D01*
X97915Y224736D01*
X98921Y224319D01*
X99410Y224255D01*
Y227756D01*
D02*
G37*
%LPD*%
D10*
X222835Y172834D02*
X223622D01*
X215748Y122441D02*
Y171260D01*
X209055Y115748D02*
X215748Y122441D01*
X186614Y115748D02*
X209055D01*
X179921Y130709D02*
X183071Y133858D01*
X173622Y150000D02*
X175197Y151575D01*
X175098Y145177D02*
X177165Y147244D01*
X177362Y140354D02*
X179134Y142126D01*
X178445Y135531D02*
X181102Y138189D01*
X185039Y30315D02*
Y82579D01*
X261221Y107283D02*
X282598D01*
X282677Y107205D01*
X186614Y120079D02*
Y120866D01*
Y120079D02*
X186614Y120079D01*
X215748Y171260D02*
X217717Y173228D01*
X223622D01*
X222835Y172835D02*
X222835Y172834D01*
X280315Y201969D02*
X281102Y202756D01*
X224410Y191732D02*
X235827D01*
X224410Y201969D02*
X280315D01*
X284252Y200394D02*
Y204723D01*
X284251Y204724D02*
X284252Y204723D01*
X282677Y198819D02*
X284252Y200394D01*
X287402Y201969D02*
Y202756D01*
Y198819D02*
Y201969D01*
X227165Y188189D02*
X254331D01*
X216142Y200394D02*
X216535Y200787D01*
X224410Y195669D02*
X284252D01*
X287402Y198819D01*
X274803Y189763D02*
Y191338D01*
X276378Y192913D01*
X281102D01*
X282283Y191732D01*
X173622Y130709D02*
X179921D01*
X173622Y135531D02*
X178445D01*
X173622Y140354D02*
X177362D01*
X173622Y145177D02*
X175098D01*
X260236Y184646D02*
X265354Y189764D01*
X269839Y189763D02*
X270472D01*
X262753Y182677D02*
X269839Y189763D01*
X282283Y186980D02*
Y191732D01*
X282676Y198819D02*
X282677Y198819D01*
X228740Y198819D02*
X282676D01*
X184646Y29921D02*
X185039Y30315D01*
X177165Y147244D02*
Y188639D01*
X175197Y151575D02*
Y189454D01*
X181806Y196063D01*
X209871Y180709D02*
X264961D01*
X266141Y181889D01*
X271260Y178740D02*
X278740Y186221D01*
Y189764D01*
X183071Y133858D02*
Y186193D01*
X185067Y188189D01*
X196822D01*
X208240Y176772D01*
X272075D01*
X282283Y186980D01*
X181102Y138189D02*
Y187008D01*
X184252Y190157D01*
X197638D01*
X209055Y178740D01*
X271260D01*
X179134Y142126D02*
Y187823D01*
X183437Y192126D01*
X198453D01*
X209871Y180709D01*
X177165Y188639D02*
X182621Y194095D01*
X199269D01*
X181806Y196063D02*
X200084D01*
X211501Y184646D01*
X199269Y194095D02*
X210686Y182677D01*
X262753D01*
X211501Y184646D02*
X260236D01*
X216142Y187795D02*
Y200394D01*
D11*
X19685Y217323D02*
D03*
X271795D02*
D03*
X19685Y19685D02*
D03*
X271795D02*
D03*
D12*
X281102Y79528D02*
D03*
Y71654D02*
D03*
Y53937D02*
D03*
Y46063D02*
D03*
X100000Y228346D02*
D03*
X107874D02*
D03*
X183465Y227953D02*
D03*
X191339D02*
D03*
D13*
X50394Y228346D02*
D03*
X58268D02*
D03*
X66142Y228346D02*
D03*
X74016Y228346D02*
D03*
X81890D02*
D03*
X125984Y227953D02*
D03*
X133858D02*
D03*
X141732D02*
D03*
X149606D02*
D03*
X157480D02*
D03*
X165354D02*
D03*
X209449Y227953D02*
D03*
X217323D02*
D03*
X225197D02*
D03*
X233071D02*
D03*
X240945D02*
D03*
D14*
X282677Y127205D02*
D03*
Y117205D02*
D03*
Y107205D02*
D03*
Y97205D02*
D03*
D15*
X60630Y34252D02*
D03*
X259252Y163976D02*
D03*
X185039Y29921D02*
D03*
Y82579D02*
D03*
X184252Y98425D02*
D03*
X212992Y112992D02*
D03*
X190847Y82579D02*
D03*
X269685Y37402D02*
D03*
X261221Y107283D02*
D03*
X186614Y120866D02*
D03*
Y115748D02*
D03*
X223622Y173228D02*
D03*
X209842Y125984D02*
D03*
X227559Y173228D02*
D03*
X235827Y191732D02*
D03*
X224410D02*
D03*
X284251Y204724D02*
D03*
X281102Y201969D02*
D03*
X287402D02*
D03*
X254331Y188189D02*
D03*
X227165D02*
D03*
X216535Y200787D02*
D03*
X224410Y195669D02*
D03*
Y201969D02*
D03*
X264547Y57500D02*
D03*
Y83091D02*
D03*
X274803Y189763D02*
D03*
X278740Y189764D02*
D03*
X270472Y189763D02*
D03*
X265354Y189764D02*
D03*
X173622Y130709D02*
D03*
Y135531D02*
D03*
Y140354D02*
D03*
Y145177D02*
D03*
Y150000D02*
D03*
X186614Y133858D02*
D03*
X266141Y181889D02*
D03*
X228740Y198819D02*
D03*
X209842Y152756D02*
D03*
X203150Y108661D02*
D03*
X238583Y107874D02*
D03*
X231890Y109843D02*
D03*
X140945Y91338D02*
D03*
Y98425D02*
D03*
Y105512D02*
D03*
Y112598D02*
D03*
Y119685D02*
D03*
Y126771D02*
D03*
Y133858D02*
D03*
Y140945D02*
D03*
Y148031D02*
D03*
X148031Y91338D02*
D03*
Y98425D02*
D03*
Y105512D02*
D03*
Y112598D02*
D03*
Y119685D02*
D03*
Y126771D02*
D03*
Y133858D02*
D03*
Y140945D02*
D03*
Y148031D02*
D03*
X155118Y91338D02*
D03*
Y98425D02*
D03*
Y105512D02*
D03*
Y112598D02*
D03*
Y119685D02*
D03*
Y126771D02*
D03*
Y133858D02*
D03*
Y140945D02*
D03*
Y148031D02*
D03*
X186614Y144882D02*
D03*
Y151181D02*
D03*
X186614Y182677D02*
D03*
Y163779D02*
D03*
X216142Y187795D02*
D03*
M02*
