G04 Layer_Physical_Order=2*
G04 Layer_Color=16711680*
%FSLAX25Y25*%
%MOIN*%
G70*
G01*
G75*
%ADD10C,0.01181*%
%ADD11C,0.19685*%
%ADD12C,0.05905*%
%ADD13C,0.06693*%
%ADD14C,0.07874*%
%ADD15C,0.03150*%
%ADD16R,0.01181X0.01181*%
%ADD17R,0.02165X0.02441*%
%ADD18O,0.06496X0.02362*%
%ADD19R,0.01181X0.04724*%
%ADD20R,0.04724X0.01181*%
%ADD21O,0.04724X0.01181*%
%ADD22R,0.13780X0.07874*%
%ADD23R,0.05118X0.01181*%
%ADD24R,0.09842X0.07874*%
%ADD25R,0.03150X0.03740*%
%ADD26R,0.02441X0.02165*%
%ADD27R,0.02362X0.03150*%
%ADD28R,0.02756X0.03740*%
%ADD29R,0.03150X0.03937*%
%ADD30R,0.06890X0.06890*%
%ADD31R,0.03150X0.02756*%
%ADD32C,0.02756*%
%ADD33C,0.03937*%
%ADD34C,0.01378*%
G36*
X173622Y89961D02*
X176378D01*
Y88779D01*
X173622D01*
Y86614D01*
X167323D01*
Y86811D01*
X166929D01*
Y86811D01*
X163659D01*
X163583Y86826D01*
Y87992D01*
X167323D01*
Y88779D01*
X163583D01*
Y89961D01*
X167323D01*
Y91902D01*
X173622D01*
Y89961D01*
D02*
G37*
G36*
X160236Y154921D02*
Y152953D01*
Y150984D01*
Y150197D01*
X159843D01*
Y149016D01*
X160236D01*
Y149016D01*
X163583D01*
Y147850D01*
X163506Y147835D01*
X160236D01*
Y147835D01*
X159843D01*
Y146653D01*
X160236D01*
Y145079D01*
Y143110D01*
Y141142D01*
Y139173D01*
Y137205D01*
Y136417D01*
X159843D01*
Y135236D01*
X160236D01*
Y135236D01*
X163447D01*
X163583Y135209D01*
Y134082D01*
X163447Y134055D01*
X160236D01*
Y134055D01*
X159843D01*
Y132874D01*
X160236D01*
Y131299D01*
Y129331D01*
Y128543D01*
X159843D01*
Y127362D01*
X160236D01*
Y127362D01*
X163447D01*
X163583Y127335D01*
Y126181D01*
X159843D01*
Y125394D01*
X163583D01*
Y124213D01*
X159843D01*
Y123425D01*
X163583D01*
Y122244D01*
X159843D01*
Y121457D01*
X163583D01*
Y120276D01*
X159843D01*
Y119488D01*
X163583D01*
Y118307D01*
X159843D01*
Y117520D01*
X163583D01*
Y116339D01*
X159843D01*
Y115551D01*
X163583D01*
Y114370D01*
X159843D01*
Y113583D01*
X163583D01*
Y112402D01*
X159843D01*
Y111614D01*
X163583D01*
Y110433D01*
X159843D01*
Y109646D01*
X163583D01*
Y108465D01*
X159843D01*
Y107677D01*
X163583D01*
Y106496D01*
X159843D01*
Y105709D01*
X163583D01*
Y104528D01*
X159843D01*
Y103740D01*
X163583D01*
Y102559D01*
X159843D01*
Y101772D01*
X163583D01*
Y100591D01*
X159843D01*
Y99803D01*
X163583D01*
Y98622D01*
X159843D01*
Y97835D01*
X163583D01*
Y96653D01*
X159843D01*
Y95866D01*
X163583D01*
Y94712D01*
X163447Y94685D01*
X160236D01*
Y94685D01*
X159843D01*
Y93504D01*
X160236D01*
Y91929D01*
Y89961D01*
Y87992D01*
Y87205D01*
X159843D01*
Y86024D01*
X160236D01*
Y86023D01*
X163583D01*
Y84842D01*
X159843D01*
Y84055D01*
X163583D01*
Y82889D01*
X163506Y82874D01*
X160236D01*
Y82874D01*
X159843D01*
Y82677D01*
X137795D01*
Y157480D01*
X160236D01*
Y154921D01*
D02*
G37*
G36*
X176984Y230906D02*
X177164Y230000D01*
X177165Y229565D01*
Y229527D01*
X177165Y229527D01*
X177165Y229527D01*
X177165Y217323D01*
X177188Y216860D01*
X177369Y215951D01*
X177723Y215096D01*
X178238Y214326D01*
X178893Y213671D01*
X179663Y213156D01*
X180518Y212802D01*
X181427Y212621D01*
X181890Y212598D01*
X231056Y212598D01*
X238162Y205492D01*
Y193389D01*
X237662Y193237D01*
X237530Y193435D01*
X236749Y193957D01*
X235827Y194141D01*
X234905Y193957D01*
X234124Y193435D01*
X233602Y192654D01*
X233418Y191732D01*
X233602Y190811D01*
X234124Y190029D01*
X234905Y189507D01*
X235827Y189324D01*
X236193Y188887D01*
Y180748D01*
X235472D01*
Y178347D01*
X234291D01*
Y180748D01*
X232618D01*
Y180740D01*
X232343Y180354D01*
X228602D01*
Y176764D01*
X228439Y176731D01*
X227983Y176426D01*
X227102Y175546D01*
X226637Y175453D01*
X225856Y174931D01*
X225840Y174908D01*
X225340D01*
X225325Y174931D01*
X224543Y175453D01*
X223622Y175637D01*
X222700Y175453D01*
X221919Y174931D01*
X221396Y174150D01*
X221213Y173228D01*
X221396Y172307D01*
X221919Y171525D01*
X222217Y171326D01*
Y171260D01*
X222324Y170723D01*
X222628Y170267D01*
X224203Y168692D01*
X224659Y168387D01*
X225197Y168280D01*
X230315D01*
Y166535D01*
X233858D01*
Y166142D01*
X235039D01*
Y166535D01*
X235040D01*
Y169549D01*
X235067Y169685D01*
Y169685D01*
X236193D01*
X236220Y169549D01*
Y166535D01*
X236221D01*
Y166142D01*
X237402D01*
Y166535D01*
X238976D01*
Y166535D01*
X242126D01*
Y166535D01*
X253937D01*
Y166535D01*
X257847D01*
Y165879D01*
X257549Y165679D01*
X257027Y164898D01*
X256843Y163976D01*
X257027Y163055D01*
X257549Y162273D01*
X258330Y161751D01*
X259252Y161568D01*
X260174Y161751D01*
X260955Y162273D01*
X261477Y163055D01*
X261660Y163976D01*
X261477Y164898D01*
X260980Y165642D01*
X261024Y165832D01*
X261163Y166142D01*
X262992D01*
Y169094D01*
X261221D01*
Y170275D01*
X262992D01*
Y173228D01*
X260657D01*
Y174241D01*
X260550Y174778D01*
X260367Y175051D01*
X260594Y175534D01*
X260614Y175551D01*
X261850D01*
Y177953D01*
X262441D01*
Y178543D01*
X264705D01*
Y179528D01*
X265907D01*
X266141Y179481D01*
X266376Y179528D01*
X271158D01*
X272414Y178271D01*
Y161444D01*
X270866D01*
X270730Y161417D01*
X267717D01*
Y156693D01*
Y152756D01*
Y148819D01*
Y144882D01*
Y140945D01*
X267717D01*
Y137795D01*
X267717D01*
Y135039D01*
X267717D01*
Y133858D01*
X267717D01*
Y132283D01*
X267323D01*
Y131102D01*
X267716D01*
Y131102D01*
X270730D01*
X270866Y131075D01*
Y129921D01*
X267323D01*
Y128740D01*
X270079D01*
Y127975D01*
X274579Y127961D01*
Y123760D01*
X273425D01*
Y121496D01*
X272835D01*
Y120905D01*
X270433D01*
Y119232D01*
X270441D01*
X270827Y118957D01*
Y115217D01*
X274843D01*
Y115682D01*
X277165D01*
X277165Y102362D01*
X280448D01*
X280547Y101862D01*
X280096Y101675D01*
X279027Y100855D01*
X278206Y99786D01*
X277691Y98541D01*
X277593Y97795D01*
X282677D01*
X287762D01*
X287664Y98541D01*
X287148Y99786D01*
X286327Y100855D01*
X285258Y101675D01*
X284807Y101862D01*
X284907Y102362D01*
X287734D01*
X287945Y102305D01*
X288292Y102039D01*
X288511Y101661D01*
X288531Y101508D01*
X288512Y101016D01*
X288512Y101016D01*
X288512Y37725D01*
Y37266D01*
X288333Y36367D01*
X287983Y35520D01*
X287473Y34758D01*
X286825Y34110D01*
X286063Y33601D01*
X285216Y33250D01*
X284317Y33071D01*
X283858D01*
X227864Y33071D01*
X162992Y33071D01*
X162992Y77756D01*
X162992D01*
Y79528D01*
X163583D01*
Y80118D01*
X167323D01*
Y80905D01*
X163583D01*
Y82086D01*
X166929D01*
Y82087D01*
X167480D01*
X167676Y82284D01*
X171909Y82284D01*
Y82087D01*
X174173D01*
Y81496D01*
X174764D01*
Y79094D01*
X176437D01*
Y79102D01*
X176713Y79488D01*
X180453D01*
Y80118D01*
X180905D01*
Y81890D01*
X182087D01*
Y80118D01*
X182677D01*
Y79921D01*
X182722Y79460D01*
X183075Y78609D01*
X183727Y77957D01*
X184579Y77604D01*
X185039Y77559D01*
X192520Y77559D01*
X192981Y77604D01*
X193832Y77957D01*
X194484Y78609D01*
X194836Y79460D01*
X194882Y79921D01*
X194882Y79921D01*
Y84350D01*
X195965D01*
Y87402D01*
X196555D01*
Y87992D01*
X199311D01*
Y90453D01*
X198645D01*
X198169Y90512D01*
Y92323D01*
X195905D01*
Y93504D01*
X198169D01*
Y95315D01*
X198521Y95669D01*
X199803D01*
Y97835D01*
X197441D01*
Y99016D01*
X199803D01*
Y100787D01*
X211811Y100787D01*
X212276Y100787D01*
X213189Y100606D01*
X214049Y100250D01*
X214823Y99733D01*
X215481Y99075D01*
X215998Y98301D01*
X216354Y97441D01*
X216536Y96528D01*
X216535Y96063D01*
X216535D01*
X216535Y96063D01*
Y90954D01*
X216419Y90779D01*
X216312Y90241D01*
Y66873D01*
X216419Y66336D01*
X216535Y66161D01*
Y44882D01*
X216558Y44419D01*
X216739Y43510D01*
X217093Y42655D01*
X217608Y41885D01*
X218263Y41230D01*
X219033Y40715D01*
X219888Y40361D01*
X220797Y40180D01*
X221260Y40157D01*
X226378Y40157D01*
Y40157D01*
X234646D01*
X235109Y40180D01*
X236017Y40361D01*
X236873Y40715D01*
X237643Y41230D01*
X238298Y41885D01*
X238812Y42655D01*
X239167Y43510D01*
X239347Y44419D01*
X239370Y44882D01*
X239370D01*
X239370Y84252D01*
X239370Y84717D01*
X239552Y85630D01*
X239908Y86490D01*
X240425Y87264D01*
X241083Y87922D01*
X241857Y88439D01*
X242716Y88795D01*
X243629Y88976D01*
X244094Y88976D01*
Y88976D01*
X259055Y88976D01*
X259518Y88999D01*
X260426Y89180D01*
X261282Y89534D01*
X262052Y90049D01*
X262707Y90704D01*
X263222Y91474D01*
X263576Y92329D01*
X263757Y93238D01*
X263779Y93701D01*
X263779D01*
X263780Y121653D01*
X262598D01*
Y124016D01*
X260630D01*
Y124016D01*
X257874D01*
Y124016D01*
X253937D01*
Y124016D01*
X252756D01*
Y124016D01*
X238189D01*
Y124016D01*
X235039D01*
Y124016D01*
X233465D01*
Y124409D01*
X232283D01*
Y124016D01*
X232283D01*
Y121002D01*
X232256Y120866D01*
X231102D01*
Y124409D01*
X229921D01*
Y117341D01*
X228298Y115718D01*
X228081Y115394D01*
X227028D01*
Y113583D01*
X229291D01*
Y112402D01*
X227028D01*
Y110591D01*
X229236D01*
X229553Y110204D01*
X229481Y109843D01*
X229665Y108921D01*
X229880Y108598D01*
X229613Y108098D01*
X210818D01*
X210460Y108456D01*
Y110236D01*
X210353Y110774D01*
X210049Y111230D01*
X208080Y113198D01*
X207624Y113503D01*
X207087Y113610D01*
X188566D01*
X188434Y113840D01*
X188360Y114110D01*
X188839Y114826D01*
X189023Y115748D01*
X188839Y116670D01*
X188317Y117451D01*
X187536Y117973D01*
X187139Y118052D01*
Y118562D01*
X187536Y118641D01*
X188317Y119163D01*
X188839Y119945D01*
X189023Y120866D01*
X188839Y121788D01*
X188317Y122569D01*
X187536Y123091D01*
X186614Y123275D01*
X185693Y123091D01*
X184911Y122569D01*
X184712Y122271D01*
X183858D01*
X183321Y122164D01*
X182865Y121860D01*
X181308Y120303D01*
X180453D01*
Y120905D01*
X176713D01*
Y116890D01*
X180453D01*
Y117493D01*
X181890D01*
X182427Y117600D01*
X182883Y117904D01*
X184274Y119295D01*
X184853Y119250D01*
X184911Y119163D01*
X185693Y118641D01*
X186090Y118562D01*
Y118052D01*
X185693Y117973D01*
X184911Y117451D01*
X184389Y116670D01*
X184206Y115748D01*
X184271Y115420D01*
X183248Y114397D01*
X181496D01*
Y115650D01*
X177165D01*
Y110335D01*
X181496D01*
Y111587D01*
X183830D01*
X184368Y111694D01*
X184824Y111999D01*
X185881Y113056D01*
X185938Y113042D01*
X186092Y112488D01*
X184046Y110442D01*
X183741Y109986D01*
X183634Y109449D01*
Y107480D01*
X181693D01*
Y108957D01*
X177362D01*
Y107480D01*
X175787D01*
Y108957D01*
X174830D01*
Y110335D01*
X175591D01*
Y115650D01*
X171260D01*
Y110335D01*
X172020D01*
Y108957D01*
X171457D01*
Y107480D01*
X167348D01*
X166929Y107980D01*
Y111614D01*
Y115551D01*
Y119488D01*
Y123425D01*
Y127335D01*
X170678D01*
X171260Y126753D01*
Y122146D01*
X172020D01*
Y121850D01*
X172127Y121313D01*
X172303Y120905D01*
X172303Y120905D01*
X172303Y120905D01*
Y116890D01*
X176043D01*
Y120905D01*
X175578D01*
Y121102D01*
X175471Y121640D01*
X175468Y121646D01*
X175591Y122146D01*
X175591D01*
X175591Y122146D01*
Y127461D01*
X174491D01*
X174419Y127568D01*
X174051Y127936D01*
X174196Y128414D01*
X174544Y128483D01*
X175325Y129006D01*
X175847Y129787D01*
X176031Y130709D01*
X175847Y131630D01*
X175325Y132412D01*
X174681Y132842D01*
X174657Y132922D01*
Y133318D01*
X174681Y133398D01*
X175325Y133828D01*
X175847Y134610D01*
X176031Y135531D01*
X175847Y136453D01*
X175325Y137234D01*
X174681Y137665D01*
X174657Y137744D01*
Y138141D01*
X174681Y138221D01*
X175325Y138651D01*
X175847Y139433D01*
X176031Y140354D01*
X175847Y141276D01*
X175325Y142057D01*
X174681Y142488D01*
X174657Y142567D01*
Y142964D01*
X174681Y143043D01*
X175325Y143474D01*
X175847Y144255D01*
X176031Y145177D01*
X175847Y146099D01*
X175325Y146880D01*
X174681Y147311D01*
X174657Y147390D01*
Y147787D01*
X174681Y147866D01*
X175325Y148297D01*
X175847Y149078D01*
X176031Y150000D01*
X175847Y150922D01*
X175325Y151703D01*
X174544Y152225D01*
X173622Y152409D01*
X172700Y152225D01*
X171919Y151703D01*
X171397Y150922D01*
X171214Y150000D01*
X171283Y149648D01*
X169371Y147736D01*
X169066Y147280D01*
X168959Y146742D01*
Y144785D01*
X167785Y143610D01*
X167323Y143802D01*
Y143898D01*
X166929D01*
Y143898D01*
X163583D01*
Y145079D01*
X167323D01*
Y145866D01*
X163583D01*
Y147047D01*
X166929D01*
Y147047D01*
X167323D01*
Y148228D01*
X166929D01*
Y152953D01*
Y157677D01*
X163583D01*
Y173452D01*
X163583Y174089D01*
X163831Y175339D01*
X164319Y176516D01*
X165027Y177576D01*
X165928Y178477D01*
X166988Y179185D01*
X168165Y179673D01*
X169415Y179921D01*
X170052Y179921D01*
X170052Y179921D01*
X188367Y179921D01*
X188386Y179421D01*
Y176969D01*
X191142D01*
Y176378D01*
X191732D01*
Y173327D01*
X193307D01*
Y172736D01*
X188779D01*
Y167421D01*
X191222D01*
X191744Y166899D01*
X191553Y166437D01*
X188583D01*
Y165907D01*
X188083Y165639D01*
X187536Y166005D01*
X186614Y166188D01*
X185693Y166005D01*
X184911Y165483D01*
X184389Y164701D01*
X184206Y163779D01*
X184389Y162858D01*
X184911Y162076D01*
X185693Y161554D01*
X186614Y161371D01*
X187536Y161554D01*
X188083Y161920D01*
X188583Y161653D01*
Y161122D01*
X192558D01*
X192933Y160630D01*
X192904Y160531D01*
X191339D01*
Y157480D01*
Y154429D01*
X192711D01*
X192746Y154339D01*
X192404Y153839D01*
X188484D01*
Y153374D01*
X187984Y153107D01*
X187536Y153406D01*
X186614Y153590D01*
X185693Y153406D01*
X184911Y152884D01*
X184389Y152103D01*
X184206Y151181D01*
X184389Y150259D01*
X184911Y149478D01*
X185693Y148956D01*
X186614Y148773D01*
X187536Y148956D01*
X187984Y149256D01*
X188484Y148988D01*
Y148524D01*
X193209Y148524D01*
X193307Y148064D01*
Y147999D01*
X192807Y147539D01*
X188484D01*
Y147075D01*
X187984Y146807D01*
X187536Y147107D01*
X186614Y147290D01*
X185693Y147107D01*
X184911Y146585D01*
X184389Y145804D01*
X184206Y144882D01*
X184389Y143960D01*
X184911Y143179D01*
X185693Y142657D01*
X186614Y142473D01*
X187536Y142657D01*
X187984Y142956D01*
X188484Y142689D01*
Y142224D01*
X193209Y142224D01*
X193307Y141765D01*
Y136614D01*
X188832D01*
X188733Y136516D01*
X188484D01*
Y136051D01*
X187984Y135784D01*
X187536Y136083D01*
X186614Y136267D01*
X185693Y136083D01*
X184911Y135561D01*
X184389Y134780D01*
X184206Y133858D01*
X184389Y132937D01*
X184911Y132155D01*
X185693Y131633D01*
X186614Y131450D01*
X187536Y131633D01*
X187984Y131933D01*
X188484Y131666D01*
Y131201D01*
X198917D01*
Y132453D01*
X209842D01*
X210380Y132560D01*
X210836Y132865D01*
X211829Y133858D01*
X218898Y133858D01*
Y131917D01*
X216575D01*
Y132815D01*
X214764D01*
Y130551D01*
X214173D01*
Y129961D01*
X211772D01*
Y128287D01*
X211772D01*
X211970Y127907D01*
X211789Y127813D01*
X211470Y127738D01*
X210764Y128209D01*
X209842Y128393D01*
X208921Y128209D01*
X208139Y127687D01*
X207617Y126906D01*
X207434Y125984D01*
X207617Y125063D01*
X208139Y124281D01*
X208921Y123759D01*
X209842Y123576D01*
X210764Y123759D01*
X211546Y124281D01*
X211665Y124460D01*
X212165Y124326D01*
Y124272D01*
X216181D01*
Y127787D01*
X216181Y128012D01*
X216567Y128287D01*
X216575D01*
Y129107D01*
X219189D01*
X219584Y128843D01*
X220276Y128706D01*
X221457D01*
Y130512D01*
X222047D01*
Y131102D01*
X225197D01*
Y131102D01*
X225508D01*
X225488Y131203D01*
X225197Y131639D01*
Y133071D01*
Y137008D01*
Y141732D01*
X225197D01*
Y142913D01*
X225197D01*
Y144882D01*
Y148819D01*
Y152362D01*
X225591D01*
Y153543D01*
X225197D01*
Y153543D01*
X222183D01*
X222047Y153570D01*
Y154697D01*
X222183Y154724D01*
X225197D01*
Y154724D01*
X225591D01*
Y155905D01*
X225197D01*
Y156299D01*
Y161417D01*
X222183D01*
X222047Y161444D01*
X220492D01*
X214003Y167933D01*
Y183670D01*
X215790Y185457D01*
X216142Y185387D01*
X217063Y185570D01*
X217845Y186092D01*
X218367Y186874D01*
X218550Y187795D01*
X218367Y188717D01*
X217845Y189498D01*
X217352Y189827D01*
X217504Y190327D01*
X219413D01*
X222545Y187196D01*
X223001Y186891D01*
X223538Y186784D01*
X225263D01*
X225462Y186486D01*
X226243Y185964D01*
X227165Y185781D01*
X228087Y185964D01*
X228868Y186486D01*
X229390Y187267D01*
X229573Y188189D01*
X229390Y189111D01*
X228868Y189892D01*
X228087Y190414D01*
X227165Y190597D01*
X227030Y190571D01*
X226674Y191010D01*
X226818Y191732D01*
X226635Y192654D01*
X226145Y193387D01*
X226089Y193558D01*
Y193843D01*
X226145Y194015D01*
X226635Y194748D01*
X226818Y195669D01*
X226641Y196557D01*
X226641Y196604D01*
X226898Y197097D01*
X227002Y197111D01*
X227079Y197088D01*
X227818Y196594D01*
X228740Y196410D01*
X229662Y196594D01*
X230443Y197116D01*
X230965Y197897D01*
X231149Y198819D01*
X230965Y199741D01*
X230443Y200522D01*
X229662Y201044D01*
X228740Y201227D01*
X227818Y201044D01*
X227079Y200550D01*
X227002Y200527D01*
X226898Y200541D01*
X226641Y201034D01*
X226641Y201081D01*
X226818Y201969D01*
X226635Y202890D01*
X226113Y203672D01*
X225331Y204194D01*
X224410Y204377D01*
X223488Y204194D01*
X222706Y203672D01*
X222507Y203374D01*
X221054D01*
X219497Y204930D01*
X219042Y205235D01*
X218504Y205342D01*
X214567D01*
X214029Y205235D01*
X213574Y204930D01*
X211819Y203176D01*
X171441D01*
X171358Y203642D01*
X171358Y203676D01*
Y207677D01*
X166732D01*
Y208268D01*
X166142D01*
Y212894D01*
X162106Y212894D01*
X162048Y212805D01*
X161482Y212789D01*
X161417Y212854D01*
X161417Y224868D01*
X161891Y225029D01*
X162125Y224724D01*
X163071Y223998D01*
X164172Y223542D01*
X164764Y223464D01*
Y227953D01*
X165354D01*
Y228543D01*
X169843D01*
X169765Y229135D01*
X169309Y230236D01*
X168607Y231151D01*
X168645Y231363D01*
X168743Y231650D01*
X176675D01*
X176984Y230906D01*
D02*
G37*
%LPC*%
G36*
X251476Y70499D02*
X250000D01*
X249078Y70316D01*
X248297Y69794D01*
X247775Y69012D01*
X247709Y68681D01*
X251476D01*
Y70499D01*
D02*
G37*
G36*
X254134D02*
X252658D01*
Y68681D01*
X256425D01*
X256359Y69012D01*
X255837Y69794D01*
X255055Y70316D01*
X254134Y70499D01*
D02*
G37*
G36*
X251476Y67500D02*
X247709D01*
X247775Y67169D01*
X248297Y66387D01*
X249078Y65865D01*
X250000Y65682D01*
X251476D01*
Y67500D01*
D02*
G37*
G36*
X256425D02*
X252658D01*
Y65682D01*
X254134D01*
X255055Y65865D01*
X255837Y66387D01*
X256359Y67169D01*
X256425Y67500D01*
D02*
G37*
G36*
X259409Y70512D02*
X257736D01*
Y68701D01*
X259409D01*
Y70512D01*
D02*
G37*
G36*
X281102Y83300D02*
X280126Y83171D01*
X279216Y82795D01*
X278435Y82195D01*
X277835Y81414D01*
X277678Y81033D01*
X275197D01*
X274621Y80918D01*
X274132Y80592D01*
X273136Y79596D01*
X264213D01*
Y79665D01*
X260197D01*
Y79596D01*
X255424D01*
X254902Y79945D01*
X254134Y80098D01*
X250000D01*
X249232Y79945D01*
X248581Y79510D01*
X248146Y78859D01*
X247993Y78091D01*
X248146Y77323D01*
X248581Y76671D01*
X249232Y76236D01*
X250000Y76083D01*
X254134D01*
X254902Y76236D01*
X255424Y76585D01*
X260197D01*
Y75925D01*
X264213D01*
Y76585D01*
X273760D01*
X274336Y76700D01*
X274824Y77026D01*
X275820Y78022D01*
X277678D01*
X277835Y77641D01*
X278435Y76860D01*
X279216Y76261D01*
X280126Y75884D01*
X280437Y75843D01*
Y75338D01*
X280126Y75297D01*
X279216Y74921D01*
X278435Y74321D01*
X277835Y73540D01*
X277678Y73159D01*
X275820D01*
X274824Y74155D01*
X274336Y74481D01*
X273760Y74596D01*
X264213D01*
Y75256D01*
X260197D01*
Y74596D01*
X255424D01*
X254902Y74945D01*
X254134Y75098D01*
X250000D01*
X249232Y74945D01*
X248581Y74510D01*
X248146Y73859D01*
X247993Y73090D01*
X248146Y72322D01*
X248581Y71671D01*
X249232Y71236D01*
X250000Y71083D01*
X254134D01*
X254902Y71236D01*
X255424Y71585D01*
X260197D01*
Y71516D01*
X264213D01*
Y71585D01*
X273136D01*
X274132Y70589D01*
X274621Y70263D01*
X275197Y70148D01*
X277678D01*
X277835Y69767D01*
X278435Y68986D01*
X279216Y68387D01*
X280126Y68010D01*
X281102Y67881D01*
X282079Y68010D01*
X282989Y68387D01*
X283770Y68986D01*
X284369Y69767D01*
X284746Y70677D01*
X284875Y71654D01*
X284746Y72630D01*
X284369Y73540D01*
X283770Y74321D01*
X282989Y74921D01*
X282079Y75297D01*
X281768Y75338D01*
Y75843D01*
X282079Y75884D01*
X282989Y76261D01*
X283770Y76860D01*
X284369Y77641D01*
X284746Y78551D01*
X284875Y79528D01*
X284746Y80504D01*
X284369Y81414D01*
X283770Y82195D01*
X282989Y82795D01*
X282079Y83171D01*
X281102Y83300D01*
D02*
G37*
G36*
X199311Y86811D02*
X197146D01*
Y84350D01*
X199311D01*
Y86811D01*
D02*
G37*
G36*
X167323Y78937D02*
X164173D01*
Y77756D01*
X167323D01*
Y78937D01*
D02*
G37*
G36*
X173583Y80905D02*
X171909D01*
Y79094D01*
X173583D01*
Y80905D01*
D02*
G37*
G36*
X258760Y62402D02*
X256594D01*
Y59941D01*
X258760D01*
Y62402D01*
D02*
G37*
G36*
X251476Y41910D02*
X247709D01*
X247775Y41578D01*
X248297Y40797D01*
X249078Y40275D01*
X250000Y40091D01*
X251476D01*
Y41910D01*
D02*
G37*
G36*
X256425D02*
X252658D01*
Y40091D01*
X254134D01*
X255055Y40275D01*
X255837Y40797D01*
X256359Y41578D01*
X256425Y41910D01*
D02*
G37*
G36*
X262264Y44921D02*
X260591D01*
Y42520D01*
X260000D01*
Y41929D01*
X257736D01*
Y40453D01*
X256594D01*
Y37992D01*
X259350D01*
X262106D01*
Y39645D01*
X262197Y39708D01*
X262697Y39445D01*
Y34744D01*
X267421D01*
Y35683D01*
X267921Y35789D01*
X267982Y35699D01*
X268763Y35176D01*
X269685Y34993D01*
X270607Y35176D01*
X271388Y35699D01*
X271910Y36480D01*
X272094Y37402D01*
X271910Y38323D01*
X271388Y39105D01*
X270607Y39627D01*
X269685Y39810D01*
X268763Y39627D01*
X267982Y39105D01*
X267921Y39014D01*
X267421Y39120D01*
Y40059D01*
X266595D01*
X266395Y40335D01*
X266306Y40457D01*
X266280Y40918D01*
Y44528D01*
X262764D01*
X262539Y44528D01*
X262264Y44913D01*
Y44921D01*
D02*
G37*
G36*
X258760Y36811D02*
X256594D01*
Y34350D01*
X258760D01*
Y36811D01*
D02*
G37*
G36*
X262106D02*
X259941D01*
Y34350D01*
X262106D01*
Y36811D01*
D02*
G37*
G36*
X281102Y57709D02*
X280126Y57581D01*
X279216Y57204D01*
X278435Y56604D01*
X277835Y55823D01*
X277678Y55442D01*
X275197D01*
X274621Y55328D01*
X274132Y55001D01*
X273136Y54005D01*
X264213D01*
Y54075D01*
X260197D01*
Y54005D01*
X255424D01*
X254902Y54354D01*
X254134Y54507D01*
X250000D01*
X249232Y54354D01*
X248581Y53919D01*
X248146Y53268D01*
X247993Y52500D01*
X248146Y51732D01*
X248581Y51081D01*
X249232Y50646D01*
X250000Y50493D01*
X254134D01*
X254902Y50646D01*
X255424Y50995D01*
X260197D01*
Y50335D01*
X264213D01*
Y50995D01*
X273760D01*
X274336Y51109D01*
X274824Y51436D01*
X275820Y52432D01*
X277678D01*
X277835Y52051D01*
X278435Y51270D01*
X279216Y50670D01*
X280126Y50293D01*
X280437Y50252D01*
Y49748D01*
X280126Y49707D01*
X279216Y49330D01*
X278435Y48730D01*
X277835Y47949D01*
X277678Y47568D01*
X275820D01*
X274824Y48564D01*
X274336Y48891D01*
X273760Y49005D01*
X264213D01*
Y49665D01*
X260197D01*
Y49005D01*
X255424D01*
X254902Y49354D01*
X254134Y49507D01*
X250000D01*
X249232Y49354D01*
X248581Y48919D01*
X248146Y48268D01*
X247993Y47500D01*
X248146Y46732D01*
X248581Y46081D01*
X249232Y45646D01*
X250000Y45493D01*
X254134D01*
X254902Y45646D01*
X255424Y45995D01*
X260197D01*
Y45925D01*
X264213D01*
Y45995D01*
X273136D01*
X274132Y44999D01*
X274621Y44672D01*
X275197Y44558D01*
X277678D01*
X277835Y44177D01*
X278435Y43396D01*
X279216Y42796D01*
X280126Y42419D01*
X281102Y42291D01*
X282079Y42419D01*
X282989Y42796D01*
X283770Y43396D01*
X284369Y44177D01*
X284746Y45087D01*
X284875Y46063D01*
X284746Y47039D01*
X284369Y47949D01*
X283770Y48730D01*
X282989Y49330D01*
X282079Y49707D01*
X281768Y49748D01*
Y50252D01*
X282079Y50293D01*
X282989Y50670D01*
X283770Y51270D01*
X284369Y52051D01*
X284746Y52961D01*
X284875Y53937D01*
X284746Y54913D01*
X284369Y55823D01*
X283770Y56604D01*
X282989Y57204D01*
X282079Y57581D01*
X281102Y57709D01*
D02*
G37*
G36*
X262264Y70512D02*
X260591D01*
Y68110D01*
X260000D01*
Y67520D01*
X257736D01*
Y66043D01*
X256594D01*
Y63583D01*
X259350D01*
Y62992D01*
X259941D01*
Y59941D01*
X262106D01*
Y60236D01*
X263042D01*
Y59335D01*
X262844Y59203D01*
X262712Y59005D01*
X255424D01*
X254902Y59354D01*
X254134Y59507D01*
X250000D01*
X249232Y59354D01*
X248581Y58919D01*
X248146Y58268D01*
X247993Y57500D01*
X248146Y56732D01*
X248581Y56081D01*
X249232Y55646D01*
X250000Y55493D01*
X254134D01*
X254902Y55646D01*
X255424Y55995D01*
X262712D01*
X262844Y55797D01*
X263626Y55275D01*
X264547Y55092D01*
X265469Y55275D01*
X266250Y55797D01*
X266772Y56578D01*
X266956Y57500D01*
X266772Y58422D01*
X266250Y59203D01*
X266053Y59335D01*
Y60335D01*
X267421D01*
Y65650D01*
X266486D01*
X266450Y65832D01*
X266280Y66102D01*
X266280D01*
X266280Y66102D01*
Y70118D01*
X262539D01*
X262264Y70504D01*
Y70512D01*
D02*
G37*
G36*
X259409Y44921D02*
X257736D01*
Y43110D01*
X259409D01*
Y44921D01*
D02*
G37*
G36*
X251476Y44908D02*
X250000D01*
X249078Y44725D01*
X248297Y44203D01*
X247775Y43422D01*
X247709Y43091D01*
X251476D01*
Y44908D01*
D02*
G37*
G36*
X254134D02*
X252658D01*
Y43091D01*
X256425D01*
X256359Y43422D01*
X255837Y44203D01*
X255055Y44725D01*
X254134Y44908D01*
D02*
G37*
G36*
X225508Y129921D02*
X222638D01*
Y128706D01*
X223819D01*
X224510Y128843D01*
X225096Y129235D01*
X225488Y129821D01*
X225508Y129921D01*
D02*
G37*
G36*
X213583Y132815D02*
X211772D01*
Y131142D01*
X213583D01*
Y132815D01*
D02*
G37*
G36*
X181890Y127854D02*
X179921D01*
Y125394D01*
X181890D01*
Y127854D01*
D02*
G37*
G36*
X272244Y123760D02*
X270433D01*
Y122087D01*
X272244D01*
Y123760D01*
D02*
G37*
G36*
X178740Y127854D02*
X176772D01*
Y125394D01*
X178740D01*
Y127854D01*
D02*
G37*
G36*
X264705Y177362D02*
X263032D01*
Y175551D01*
X264705D01*
Y177362D01*
D02*
G37*
G36*
X167323Y212894D02*
Y208858D01*
X171358D01*
Y212894D01*
X167323D01*
D02*
G37*
G36*
X190551Y175787D02*
X188386D01*
Y173327D01*
X190551D01*
Y175787D01*
D02*
G37*
G36*
X190157Y156890D02*
X188189D01*
Y154429D01*
X190157D01*
Y156890D01*
D02*
G37*
G36*
Y160531D02*
X188189D01*
Y158071D01*
X190157D01*
Y160531D01*
D02*
G37*
G36*
X181890Y124213D02*
X179921D01*
Y121752D01*
X181890D01*
Y124213D01*
D02*
G37*
G36*
X282087Y96614D02*
X277593D01*
X277691Y95869D01*
X278206Y94624D01*
X279027Y93554D01*
X280096Y92734D01*
X281341Y92218D01*
X282087Y92120D01*
Y96614D01*
D02*
G37*
G36*
X222547Y112402D02*
X220382D01*
Y109941D01*
X222547D01*
Y112402D01*
D02*
G37*
G36*
X287762Y96614D02*
X283268D01*
Y92120D01*
X284013Y92218D01*
X285258Y92734D01*
X286327Y93554D01*
X287148Y94624D01*
X287664Y95869D01*
X287762Y96614D01*
D02*
G37*
G36*
X264547Y85499D02*
X263626Y85316D01*
X262844Y84794D01*
X262712Y84596D01*
X255424D01*
X254902Y84945D01*
X254134Y85098D01*
X250000D01*
X249232Y84945D01*
X248581Y84510D01*
X248146Y83859D01*
X247993Y83091D01*
X248146Y82323D01*
X248581Y81671D01*
X249232Y81236D01*
X250000Y81084D01*
X254134D01*
X254902Y81236D01*
X255424Y81585D01*
X262712D01*
X262844Y81388D01*
X263626Y80865D01*
X264547Y80682D01*
X265469Y80865D01*
X266250Y81388D01*
X266772Y82169D01*
X266956Y83091D01*
X266772Y84012D01*
X266250Y84794D01*
X265469Y85316D01*
X264547Y85499D01*
D02*
G37*
G36*
X169843Y227362D02*
X165945D01*
Y223464D01*
X166536Y223542D01*
X167638Y223998D01*
X168583Y224724D01*
X169309Y225670D01*
X169765Y226771D01*
X169843Y227362D01*
D02*
G37*
G36*
X219791Y115650D02*
X215067D01*
Y115002D01*
X214995Y114943D01*
X214567Y114781D01*
X213914Y115217D01*
X212992Y115401D01*
X212070Y115217D01*
X211289Y114695D01*
X210767Y113914D01*
X210584Y112992D01*
X210767Y112070D01*
X211289Y111289D01*
X212070Y110767D01*
X212992Y110584D01*
X213914Y110767D01*
X214567Y111203D01*
X214995Y111041D01*
X215067Y110982D01*
Y110335D01*
X219791D01*
Y115650D01*
D02*
G37*
G36*
X178740Y124213D02*
X176772D01*
Y121752D01*
X178740D01*
Y124213D01*
D02*
G37*
G36*
X225894Y116043D02*
X223728D01*
Y113583D01*
X225894D01*
Y116043D01*
D02*
G37*
G36*
Y112402D02*
X223728D01*
Y109941D01*
X225894D01*
Y112402D01*
D02*
G37*
G36*
X222547Y116043D02*
X220382D01*
Y113583D01*
X222547D01*
Y116043D01*
D02*
G37*
%LPD*%
D10*
X275984Y117087D02*
X282559D01*
X272835D02*
X275984D01*
Y131102D01*
X274606Y132480D02*
X275984Y131102D01*
X270866Y132480D02*
X274606D01*
X122441Y29921D02*
X184646D01*
X118110Y34252D02*
X122441Y29921D01*
X111024Y34252D02*
X118110D01*
X52756D02*
X60630D01*
X259252Y163976D02*
Y169685D01*
X255511Y181889D02*
X266142D01*
X254331Y180709D02*
X255511Y181889D01*
X185039Y82579D02*
Y94095D01*
X179527Y93307D02*
X181496Y91339D01*
Y81890D02*
Y91339D01*
X191339Y221654D02*
Y227953D01*
X251378Y185236D02*
X254331Y188189D01*
X251378Y169685D02*
Y185236D01*
X163583Y93307D02*
X179527D01*
X185039Y109449D02*
X187795Y112205D01*
X185039Y102756D02*
Y109449D01*
Y102756D02*
X187205Y100591D01*
Y96260D02*
Y100591D01*
X185039Y94095D02*
X187205Y96260D01*
X180118Y98425D02*
X180315Y98622D01*
X180118Y98425D02*
X180118Y98425D01*
X184252D01*
X187795Y112205D02*
X207087D01*
X212992Y112992D02*
X212992Y112992D01*
X217429D01*
X275433Y134449D02*
X282677Y127205D01*
X261221Y107283D02*
Y120866D01*
X173425Y124803D02*
Y126575D01*
X171260Y128740D02*
X173425Y126575D01*
X163583Y128740D02*
X171260D01*
X174173Y118898D02*
Y121102D01*
X173425Y121850D02*
X174173Y121102D01*
X173425Y121850D02*
Y124803D01*
X181890Y118898D02*
X183858Y120866D01*
X186614D01*
X178583Y118898D02*
X181890D01*
X173425Y102165D02*
Y112992D01*
X185433Y114567D02*
X186614Y115748D01*
X185405Y114567D02*
X185433D01*
X207087Y112205D02*
X209055Y110236D01*
X183830Y112992D02*
X185405Y114567D01*
X179331Y112992D02*
X183830D01*
X209055Y107874D02*
Y110236D01*
X180315Y98622D02*
Y101969D01*
X179528Y102756D02*
X180315Y101969D01*
X179528Y102756D02*
Y106299D01*
X223622Y171260D02*
X225197Y169685D01*
X223622Y171260D02*
Y173228D01*
X225197Y169685D02*
X231693D01*
X258032Y175461D02*
Y177953D01*
Y175461D02*
X259252Y174241D01*
Y169685D02*
Y174241D01*
X234882Y175748D02*
Y178347D01*
Y175748D02*
X235630Y175000D01*
Y169685D02*
Y175000D01*
X209842Y125984D02*
X214016D01*
X214173Y126142D01*
X227559Y173228D02*
Y174016D01*
X228976Y175433D01*
X233662Y169685D02*
Y173819D01*
X232047Y175433D02*
X233662Y173819D01*
X228976Y175433D02*
X232047D01*
X230472Y175748D02*
Y178347D01*
X237598Y169685D02*
Y189961D01*
X235827Y191732D02*
X237598Y189961D01*
X222202Y193701D02*
X224171Y191732D01*
X223538Y188189D02*
X227165D01*
X178583Y81496D02*
Y84016D01*
X176378Y86221D02*
X178583Y84016D01*
X176378Y86221D02*
Y89370D01*
X172638Y101378D02*
X173425Y102165D01*
X172638Y98425D02*
Y101378D01*
X282559Y117087D02*
X282677Y117205D01*
X272835Y121496D02*
Y128543D01*
X270866Y130512D02*
X272835Y128543D01*
X270866Y134449D02*
X275433D01*
X217717Y66873D02*
X223622Y60968D01*
Y49213D02*
Y60968D01*
Y49213D02*
X225335Y47500D01*
X229823D01*
X217717Y66873D02*
Y90241D01*
X219685Y67689D02*
Y89426D01*
Y67689D02*
X224775Y62598D01*
X221654Y68504D02*
X225590Y64567D01*
X221654Y68504D02*
Y88611D01*
X253346Y98284D02*
Y120866D01*
X255315Y97469D02*
Y120866D01*
X257283Y96653D02*
Y120866D01*
X234646Y78740D02*
Y89792D01*
X236614Y70079D02*
Y88976D01*
X223622Y74410D02*
Y87795D01*
X224941Y73090D02*
X229823D01*
X223622Y74410D02*
X224941Y73090D01*
X237008Y44094D02*
Y60658D01*
X235413Y42500D02*
X237008Y44094D01*
X233099Y64567D02*
X237008Y60658D01*
X225590Y64567D02*
X233099D01*
X229823Y42500D02*
X235413D01*
X235039Y53543D02*
Y59842D01*
X233996Y52500D02*
X235039Y53543D01*
X232283Y62598D02*
X235039Y59842D01*
X224775Y62598D02*
X232283D01*
X229823Y52500D02*
X233996D01*
X234626Y68090D02*
X236614Y70079D01*
X229823Y68090D02*
X234626D01*
X233996Y78091D02*
X234646Y78740D01*
X229823Y78091D02*
X233996D01*
X284251Y204724D02*
X284252Y204723D01*
X281102Y201969D02*
Y202756D01*
X287402Y201969D02*
Y202756D01*
Y149550D02*
Y201969D01*
X249410Y169685D02*
Y204584D01*
X233521Y220472D02*
X249410Y204584D01*
X226772Y220472D02*
X233521D01*
X225197Y222047D02*
X226772Y220472D01*
X225197Y222047D02*
Y227953D01*
X66142Y213779D02*
Y227953D01*
X231468Y214173D02*
X239567Y206074D01*
X198819Y214173D02*
X231468D01*
X191339Y221654D02*
X198819Y214173D01*
X243504Y169685D02*
Y207705D01*
X232705Y218504D02*
X243504Y207705D01*
X219291Y218504D02*
X232705D01*
X220472Y201969D02*
X224410D01*
X218504Y203937D02*
X220472Y201969D01*
X239567Y169685D02*
Y206074D01*
X241535Y169685D02*
Y206890D01*
X58268Y211417D02*
Y227953D01*
X50394Y211417D02*
Y227953D01*
X149606Y203543D02*
Y227559D01*
X107874Y215748D02*
Y227953D01*
X141732Y203571D02*
Y227559D01*
X270866Y156102D02*
X275787D01*
X278205Y140354D02*
X287402Y149550D01*
X270866Y140354D02*
X278205D01*
X270866Y140354D02*
X270866Y140354D01*
X270866Y142323D02*
X277390D01*
X270866Y144291D02*
X276575D01*
X231890Y216535D02*
X241535Y206890D01*
X212598Y216535D02*
X231890D01*
X217323Y220472D02*
X219291Y218504D01*
X217323Y220472D02*
Y227953D01*
X209449Y219685D02*
X212598Y216535D01*
X209449Y219685D02*
Y227953D01*
X261220Y120866D02*
X261221Y120866D01*
X196555Y151181D02*
Y157382D01*
X201969Y141437D02*
Y144882D01*
Y141437D02*
X202067Y141339D01*
X196555Y144882D02*
X201969D01*
X207480Y133858D02*
Y137303D01*
X207382Y137402D02*
X207480Y137303D01*
X196555Y133858D02*
X207480D01*
X209842D01*
X214370Y138386D01*
X222047D01*
X198130Y151181D02*
X199213D01*
X203543Y146850D01*
X206299Y148819D02*
X206299Y148819D01*
X204359Y148819D02*
X206299D01*
X200394Y152784D02*
X204359Y148819D01*
X191142Y169488D02*
Y170079D01*
Y169488D02*
X196654Y163976D01*
Y163779D02*
Y163976D01*
X200394Y152784D02*
Y168504D01*
X198819Y170079D02*
X200394Y168504D01*
X196260Y170079D02*
X198819D01*
X196654Y176772D02*
Y182677D01*
X196260Y176378D02*
X196654Y176772D01*
X193701Y105905D02*
Y108661D01*
X189961Y105315D02*
Y108661D01*
X270866Y158071D02*
X274213D01*
X270866Y154134D02*
X276603D01*
X214567Y203937D02*
X218504D01*
X257283Y169685D02*
X257283Y169685D01*
X257283Y169685D02*
Y173425D01*
X254331Y176378D02*
Y180709D01*
Y176378D02*
X257283Y173425D01*
X276603Y154134D02*
X279724Y157255D01*
Y182115D01*
X278740Y183099D02*
X279724Y182115D01*
X275787Y156102D02*
X277756Y158071D01*
Y181299D01*
X274213Y158071D02*
X275787Y159646D01*
X270866Y160039D02*
X273397D01*
X273819Y160461D01*
X281102Y201969D02*
X281890Y201181D01*
X277390Y142323D02*
X284252Y149185D01*
X276575Y144291D02*
X281890Y149606D01*
X284252Y149185D02*
Y204723D01*
X281890Y149606D02*
Y201181D01*
X278740Y183099D02*
Y189764D01*
X274803Y184253D02*
X277756Y181299D01*
X274803Y184253D02*
Y189763D01*
X265354Y187318D02*
Y189764D01*
X163583Y132677D02*
X170768D01*
X173622Y135531D01*
X163583Y136614D02*
X169882D01*
X173622Y140354D01*
X186614Y133858D02*
X190847D01*
X275787Y159646D02*
Y180484D01*
X273819Y160461D02*
Y178853D01*
X270472Y185799D02*
X275787Y180484D01*
X270472Y185799D02*
Y189763D01*
X265354Y187318D02*
X273819Y178853D01*
X214370Y140354D02*
X222047D01*
X215185Y142323D02*
X222047D01*
X216001Y144291D02*
X222047D01*
X201969Y144882D02*
X209843D01*
X214370Y140354D01*
X203543Y146850D02*
X210658D01*
X215185Y142323D01*
X206299Y148819D02*
X211473D01*
X216001Y144291D01*
X211260Y150945D02*
X214173D01*
X216732Y154134D02*
X222047D01*
X214173Y155354D02*
X215512D01*
X216732Y154134D01*
X214173Y150945D02*
X215512D01*
X216732Y152165D01*
X222047D01*
X214213Y130512D02*
X222047D01*
X214173Y130551D02*
X214213Y130512D01*
X222441Y198819D02*
X228740D01*
X209842Y152362D02*
X211260Y150945D01*
X209842Y152362D02*
Y152756D01*
X197441Y108661D02*
X203150D01*
X189961Y105315D02*
X192520Y102756D01*
X193701Y105905D02*
X194882Y104724D01*
X209055Y107874D02*
X210236Y106693D01*
X221654Y88611D02*
X229893Y96850D01*
X219685Y89426D02*
X229078Y98819D01*
X217717Y90241D02*
X228263Y100787D01*
X251575Y90945D02*
X257283Y96653D01*
X250759Y92913D02*
X255315Y97469D01*
X249944Y94882D02*
X253346Y98284D01*
X238583Y90945D02*
X251575D01*
X236614Y88976D02*
X238583Y90945D01*
X237767Y92913D02*
X250759D01*
X234646Y89792D02*
X237767Y92913D01*
X230709Y94882D02*
X249944D01*
X223622Y87795D02*
X230709Y94882D01*
X249410Y102475D02*
Y120866D01*
X243785Y96850D02*
X249410Y102475D01*
X229893Y96850D02*
X243785D01*
X247441Y103291D02*
Y120866D01*
X242969Y98819D02*
X247441Y103291D01*
X229078Y98819D02*
X242969D01*
X245473Y104106D02*
Y120866D01*
X242154Y100787D02*
X245473Y104106D01*
X228263Y100787D02*
X242154D01*
X243504Y104921D02*
Y120866D01*
X241339Y102756D02*
X243504Y104921D01*
X192520Y102756D02*
X241339D01*
X241535Y105737D02*
Y120866D01*
X240523Y104724D02*
X241535Y105737D01*
X194882Y104724D02*
X240523D01*
X210236Y106693D02*
X233071D01*
X237598Y111221D01*
Y120866D01*
X239567Y108858D02*
Y120866D01*
X238583Y107874D02*
X239567Y108858D01*
X233662Y112638D02*
X233701Y112598D01*
X229291Y114724D02*
X231693Y117126D01*
Y120866D01*
X229291Y112992D02*
Y114724D01*
Y112598D02*
Y112992D01*
X231890Y109843D02*
X233701Y111653D01*
Y112598D01*
Y112992D01*
X233662Y112638D02*
Y120866D01*
X186614Y144882D02*
X190847D01*
X186614Y151181D02*
X190847D01*
X186614Y182677D02*
X190748D01*
X186614Y163779D02*
X190748D01*
X186221D02*
X186614D01*
X215354Y199606D02*
X216535Y200787D01*
X145697Y199606D02*
X215354D01*
X141732Y203571D02*
X145697Y199606D01*
X149606Y203543D02*
X151378Y201771D01*
X212401D01*
X214567Y203937D01*
X219995Y191732D02*
X223538Y188189D01*
X212598Y184252D02*
X216142Y187795D01*
X212598Y167351D02*
Y184252D01*
Y167351D02*
X219910Y160039D01*
X222047D01*
X208661Y165354D02*
X217913Y156102D01*
X222047D01*
X140157Y187795D02*
X206299D01*
X208661Y185433D01*
Y165354D02*
Y185433D01*
X140973Y189764D02*
X207115D01*
X210630Y186249D01*
X133858Y208661D02*
Y227559D01*
Y208661D02*
X144882Y197638D01*
X221260D01*
X222441Y198819D01*
X125984Y213386D02*
Y227559D01*
Y213386D02*
X143701Y195669D01*
X224410D01*
X107874Y215748D02*
X111024Y212598D01*
X123706D01*
X142604Y193701D01*
X222202D01*
X66142Y213779D02*
X69291Y210630D01*
X122891D01*
X141788Y191732D01*
X219995D01*
X122075Y208661D02*
X140973Y189764D01*
X58268Y211417D02*
X61024Y208661D01*
X122075D01*
X121260Y206693D02*
X140157Y187795D01*
X50394Y211417D02*
X55118Y206693D01*
X121260D01*
X173622Y144677D02*
Y145177D01*
X163583Y138583D02*
X167528D01*
X173622Y144677D01*
X170364Y146742D02*
X173622Y150000D01*
X170364Y144203D02*
Y146742D01*
X163583Y140551D02*
X166712D01*
X170364Y144203D01*
X163583Y130709D02*
X173622D01*
X210630Y166170D02*
X218729Y158071D01*
X210630Y166170D02*
Y186249D01*
X218729Y158071D02*
X222047D01*
D11*
X19685Y217323D02*
D03*
X271795D02*
D03*
X19685Y19685D02*
D03*
X271795D02*
D03*
D12*
X281102Y79528D02*
D03*
Y71654D02*
D03*
Y53937D02*
D03*
Y46063D02*
D03*
X100000Y228346D02*
D03*
X107874D02*
D03*
X183465Y227953D02*
D03*
X191339D02*
D03*
D13*
X50394Y228346D02*
D03*
X58268D02*
D03*
X66142Y228346D02*
D03*
X74016Y228346D02*
D03*
X81890D02*
D03*
X125984Y227953D02*
D03*
X133858D02*
D03*
X141732D02*
D03*
X149606D02*
D03*
X157480D02*
D03*
X165354D02*
D03*
X209449Y227953D02*
D03*
X217323D02*
D03*
X225197D02*
D03*
X233071D02*
D03*
X240945D02*
D03*
D14*
X282677Y127205D02*
D03*
Y117205D02*
D03*
Y107205D02*
D03*
Y97205D02*
D03*
D15*
X60630Y34252D02*
D03*
X259252Y163976D02*
D03*
X185039Y29921D02*
D03*
Y82579D02*
D03*
X184252Y98425D02*
D03*
X212992Y112992D02*
D03*
X190847Y82579D02*
D03*
X269685Y37402D02*
D03*
X261221Y107283D02*
D03*
X186614Y120866D02*
D03*
Y115748D02*
D03*
X223622Y173228D02*
D03*
X209842Y125984D02*
D03*
X227559Y173228D02*
D03*
X235827Y191732D02*
D03*
X224410D02*
D03*
X284251Y204724D02*
D03*
X281102Y201969D02*
D03*
X287402D02*
D03*
X254331Y188189D02*
D03*
X227165D02*
D03*
X216535Y200787D02*
D03*
X224410Y195669D02*
D03*
Y201969D02*
D03*
X264547Y57500D02*
D03*
Y83091D02*
D03*
X274803Y189763D02*
D03*
X278740Y189764D02*
D03*
X270472Y189763D02*
D03*
X265354Y189764D02*
D03*
X173622Y130709D02*
D03*
Y135531D02*
D03*
Y140354D02*
D03*
Y145177D02*
D03*
Y150000D02*
D03*
X186614Y133858D02*
D03*
X266141Y181889D02*
D03*
X228740Y198819D02*
D03*
X209842Y152756D02*
D03*
X203150Y108661D02*
D03*
X238583Y107874D02*
D03*
X231890Y109843D02*
D03*
X140945Y91338D02*
D03*
Y98425D02*
D03*
Y105512D02*
D03*
Y112598D02*
D03*
Y119685D02*
D03*
Y126771D02*
D03*
Y133858D02*
D03*
Y140945D02*
D03*
Y148031D02*
D03*
X148031Y91338D02*
D03*
Y98425D02*
D03*
Y105512D02*
D03*
Y112598D02*
D03*
Y119685D02*
D03*
Y126771D02*
D03*
Y133858D02*
D03*
Y140945D02*
D03*
Y148031D02*
D03*
X155118Y91338D02*
D03*
Y98425D02*
D03*
Y105512D02*
D03*
Y112598D02*
D03*
Y119685D02*
D03*
Y126771D02*
D03*
Y133858D02*
D03*
Y140945D02*
D03*
Y148031D02*
D03*
X186614Y144882D02*
D03*
Y151181D02*
D03*
X186614Y182677D02*
D03*
Y163779D02*
D03*
X216142Y187795D02*
D03*
D16*
X181496Y81890D02*
D03*
D17*
X174173Y118898D02*
D03*
X178583D02*
D03*
X191496Y92913D02*
D03*
X195905D02*
D03*
X264409Y68110D02*
D03*
X260000D02*
D03*
X264409Y42520D02*
D03*
X260000D02*
D03*
X234882Y178347D02*
D03*
X230472D02*
D03*
X258032Y177953D02*
D03*
X262441D02*
D03*
X233701Y112992D02*
D03*
X229291D02*
D03*
X174173Y81496D02*
D03*
X178583D02*
D03*
D18*
X252067Y57500D02*
D03*
Y52500D02*
D03*
Y47500D02*
D03*
Y42500D02*
D03*
X229823Y57500D02*
D03*
Y52500D02*
D03*
Y47500D02*
D03*
Y42500D02*
D03*
X252067Y83091D02*
D03*
Y78091D02*
D03*
Y73090D02*
D03*
Y68090D02*
D03*
X229823Y83091D02*
D03*
Y78091D02*
D03*
Y73090D02*
D03*
Y68090D02*
D03*
D19*
X231693Y120866D02*
D03*
X233662D02*
D03*
X235630Y120866D02*
D03*
X237598D02*
D03*
X239567Y120866D02*
D03*
X241535D02*
D03*
X243504D02*
D03*
X245473D02*
D03*
X247441D02*
D03*
X249410D02*
D03*
X251378D02*
D03*
X253346Y120866D02*
D03*
X255315Y120866D02*
D03*
X257283D02*
D03*
X259252Y120866D02*
D03*
X261221Y120866D02*
D03*
X261221Y169685D02*
D03*
X259252D02*
D03*
X257283D02*
D03*
X255315D02*
D03*
X253346Y169685D02*
D03*
X251378D02*
D03*
X249410D02*
D03*
X247441D02*
D03*
X245473D02*
D03*
X243504D02*
D03*
X241535Y169685D02*
D03*
X239567D02*
D03*
X237598Y169685D02*
D03*
X235630D02*
D03*
X233662Y169685D02*
D03*
X231693D02*
D03*
D20*
X270866Y130512D02*
D03*
Y132480D02*
D03*
X270866Y134449D02*
D03*
X270866Y136417D02*
D03*
X270866Y138386D02*
D03*
Y140354D02*
D03*
X270866Y142323D02*
D03*
Y144291D02*
D03*
Y146260D02*
D03*
Y148228D02*
D03*
Y150197D02*
D03*
Y152165D02*
D03*
Y154134D02*
D03*
Y156102D02*
D03*
Y158071D02*
D03*
Y160039D02*
D03*
X222047Y160039D02*
D03*
Y158071D02*
D03*
Y156102D02*
D03*
X222047Y154134D02*
D03*
Y152165D02*
D03*
Y150197D02*
D03*
Y148228D02*
D03*
Y146260D02*
D03*
Y144291D02*
D03*
X222047Y142323D02*
D03*
X222047Y140354D02*
D03*
Y138386D02*
D03*
Y136417D02*
D03*
Y134449D02*
D03*
Y132480D02*
D03*
D21*
X222047Y130512D02*
D03*
D22*
X154921Y163189D02*
D03*
X154528Y73032D02*
D03*
D23*
X163583Y79528D02*
D03*
Y81496D02*
D03*
Y83465D02*
D03*
Y85433D02*
D03*
Y87402D02*
D03*
Y89370D02*
D03*
Y91339D02*
D03*
Y93307D02*
D03*
Y95276D02*
D03*
Y97244D02*
D03*
Y99213D02*
D03*
Y101181D02*
D03*
Y103150D02*
D03*
Y105118D02*
D03*
Y107087D02*
D03*
Y109055D02*
D03*
Y111024D02*
D03*
Y112992D02*
D03*
Y114961D02*
D03*
Y116929D02*
D03*
Y118898D02*
D03*
Y120866D02*
D03*
Y122835D02*
D03*
Y124803D02*
D03*
Y126772D02*
D03*
Y128740D02*
D03*
Y130709D02*
D03*
Y132677D02*
D03*
Y134646D02*
D03*
Y136614D02*
D03*
Y138583D02*
D03*
Y140551D02*
D03*
Y142520D02*
D03*
Y144488D02*
D03*
Y146457D02*
D03*
Y148425D02*
D03*
Y150394D02*
D03*
Y152362D02*
D03*
Y154331D02*
D03*
Y156299D02*
D03*
D24*
X52756Y34252D02*
D03*
X111024D02*
D03*
D25*
X190847Y87402D02*
D03*
X196555D02*
D03*
X217429Y112992D02*
D03*
X223138D02*
D03*
X190847Y144882D02*
D03*
X196555D02*
D03*
X191142Y176378D02*
D03*
X196260D02*
D03*
X265059Y62992D02*
D03*
X259350D02*
D03*
X265059Y37402D02*
D03*
X259350D02*
D03*
X196555Y151181D02*
D03*
X190847D02*
D03*
Y133858D02*
D03*
X196555D02*
D03*
X196260Y170079D02*
D03*
X191142D02*
D03*
D26*
X214173Y126142D02*
D03*
Y130551D02*
D03*
Y150945D02*
D03*
Y155354D02*
D03*
X262205Y52205D02*
D03*
Y47795D02*
D03*
X272835Y117087D02*
D03*
Y121496D02*
D03*
X262205Y77795D02*
D03*
Y73386D02*
D03*
D27*
X197441Y108661D02*
D03*
X189961D02*
D03*
X193701D02*
D03*
X197441Y98425D02*
D03*
X189961D02*
D03*
D28*
X196654Y182677D02*
D03*
X190748D02*
D03*
X196654Y163779D02*
D03*
X190748D02*
D03*
X179528Y106299D02*
D03*
X173622D02*
D03*
X190748Y157480D02*
D03*
X196654D02*
D03*
X179331Y124803D02*
D03*
X173425D02*
D03*
X179331Y112992D02*
D03*
X173425D02*
D03*
D29*
X180118Y98425D02*
D03*
X172638D02*
D03*
X176378Y89370D02*
D03*
D30*
X166732Y208268D02*
D03*
X157677D02*
D03*
D31*
X207382Y141339D02*
D03*
Y137402D02*
D03*
X202067D02*
D03*
Y141339D02*
D03*
D32*
X165354Y233858D02*
X227953D01*
X79528D02*
X165354D01*
Y227953D02*
Y233858D01*
X233071Y227953D02*
Y228740D01*
X227953Y233858D02*
X233071Y228740D01*
X74016Y228346D02*
X79528Y233858D01*
D33*
X157480Y208858D02*
Y227953D01*
X156890Y208268D02*
X157480Y208858D01*
D34*
X190847Y82579D02*
Y87402D01*
X190945Y87500D01*
Y90158D01*
X191496Y90709D01*
Y92913D01*
Y95512D01*
X189961Y97047D02*
X191496Y95512D01*
X189961Y97047D02*
Y98425D01*
X269685Y37402D02*
X269685Y37402D01*
X265059Y37402D02*
X269685D01*
X264409Y42520D02*
X264567Y42362D01*
Y40157D02*
Y42362D01*
Y40157D02*
X265059Y39665D01*
Y37402D02*
Y39665D01*
X264409Y68110D02*
X264567Y67953D01*
Y65748D02*
Y67953D01*
Y65748D02*
X265059Y65256D01*
Y62992D02*
Y65256D01*
X264547Y62480D02*
X265059Y62992D01*
X264547Y57500D02*
Y62480D01*
X252067Y47500D02*
X273760D01*
X252067Y52500D02*
X273760D01*
X252067Y73090D02*
X273760D01*
X252067Y78091D02*
X273760D01*
X275197Y46063D02*
X281102D01*
X273760Y47500D02*
X275197Y46063D01*
X273760Y52500D02*
X275197Y53937D01*
X281102D01*
X273760Y78091D02*
X275197Y79528D01*
X281102D01*
X273760Y73090D02*
X275197Y71654D01*
X281102D01*
X252067Y57500D02*
X264547D01*
X252067Y83091D02*
X264547D01*
M02*
